<?xml version="1.0" standalone="no"?>
<!DOCTYPE svg PUBLIC "-//W3C//DTD SVG 20010904//EN"
 "http://www.w3.org/TR/2001/REC-SVG-20010904/DTD/svg10.dtd">
<svg version="1.0" xmlns="http://www.w3.org/2000/svg"
 width="761.000000pt" height="786.000000pt" viewBox="0 0 761.000000 786.000000"
 preserveAspectRatio="xMidYMid meet">
<metadata>
Created by potrace 1.12, written by Peter Selinger 2001-2015
</metadata>
<g transform="translate(0.000000,786.000000) scale(0.100000,-0.100000)"
fill="#ffffff" stroke="none">
<path d="M0 3930 l0 -3930 3805 0 3805 0 0 3930 0 3930 -3805 0 -3805 0 0
-3930z m3840 3014 c0 -11 15 -14 65 -14 49 0 67 -4 71 -15 5 -11 24 -15 80
-15 74 0 75 0 113 -40 21 -22 46 -40 55 -40 9 0 34 -18 55 -40 21 -22 46 -40
55 -40 18 0 55 -37 56 -55 0 -7 15 -9 36 -7 27 3 39 0 46 -12 5 -9 20 -16 33
-16 14 0 25 -4 25 -10 0 -5 9 -10 19 -10 11 0 26 -9 34 -20 9 -13 20 -18 31
-14 10 4 18 0 22 -10 3 -9 16 -16 29 -16 13 0 25 -7 29 -15 3 -8 14 -15 25
-15 11 0 28 -11 39 -25 11 -14 29 -25 41 -25 12 0 24 -7 27 -15 4 -8 16 -15
29 -15 13 0 32 -13 45 -31 16 -20 30 -29 42 -26 11 3 22 -2 28 -13 6 -12 17
-16 30 -13 16 4 20 0 20 -21 0 -15 7 -29 15 -32 8 -4 15 -16 15 -29 0 -13 7
-26 16 -29 9 -3 14 -13 11 -20 -3 -8 1 -20 9 -26 8 -7 14 -23 14 -36 0 -15 6
-24 15 -24 9 0 15 -9 15 -25 0 -14 7 -28 15 -31 8 -4 15 -16 15 -29 0 -13 7
-26 16 -29 12 -5 15 -14 10 -37 -4 -21 -1 -31 9 -35 8 -3 17 -15 21 -26 4 -15
12 -18 30 -14 22 6 24 4 24 -33 0 -26 5 -41 16 -45 10 -4 13 -13 9 -26 -4 -13
-1 -22 9 -26 10 -4 16 -19 16 -40 0 -22 6 -37 15 -40 11 -5 15 -23 15 -75 0
-55 3 -69 15 -69 11 0 15 -11 15 -39 0 -25 5 -41 15 -45 9 -3 15 -18 15 -39 0
-18 5 -38 12 -45 7 -7 11 -29 9 -50 -1 -25 3 -43 13 -51 9 -8 16 -24 16 -37 0
-15 6 -24 15 -24 12 0 15 -14 15 -65 0 -49 4 -67 15 -71 10 -4 15 -20 15 -44
0 -23 5 -40 14 -43 10 -4 12 -18 9 -51 -4 -36 -2 -47 11 -52 10 -4 16 -18 16
-40 0 -43 30 -74 70 -74 40 0 70 -31 70 -74 0 -21 6 -36 15 -40 8 -3 15 -16
15 -30 0 -13 7 -26 15 -30 8 -3 12 -12 9 -21 -4 -8 1 -17 10 -21 11 -4 16 -18
16 -44 0 -24 5 -40 15 -44 8 -3 15 -16 15 -30 0 -13 7 -26 15 -30 8 -3 15 -14
15 -25 0 -11 5 -23 10 -26 6 -3 10 -15 10 -26 0 -11 7 -22 15 -25 8 -4 15 -16
15 -29 0 -13 7 -25 15 -29 8 -3 15 -16 15 -30 0 -13 7 -27 16 -30 11 -4 15
-14 12 -30 -4 -17 -1 -23 9 -19 8 3 13 -3 13 -19 0 -14 12 -33 30 -48 17 -14
30 -34 30 -48 0 -12 6 -25 14 -28 8 -3 13 -11 10 -19 -3 -7 1 -19 9 -26 7 -8
17 -27 21 -42 3 -15 11 -27 16 -27 6 0 10 -9 10 -20 0 -11 7 -23 15 -26 9 -4
15 -19 15 -35 0 -16 3 -28 8 -27 10 4 72 -59 72 -72 0 -5 11 -10 25 -10 22 0
25 4 25 39 l0 39 81 4 c59 2 83 -1 86 -9 3 -7 11 -13 19 -13 8 0 14 -6 14 -14
0 -8 7 -16 15 -20 11 -4 15 -20 15 -55 0 -31 5 -51 13 -54 7 -2 12 -22 12 -53
0 -44 3 -49 23 -52 48 -7 62 -35 62 -122 0 -62 -3 -82 -15 -86 -12 -5 -15 -24
-15 -84 0 -60 -3 -79 -15 -84 -11 -4 -15 -23 -15 -79 0 -54 -4 -78 -15 -87 -8
-7 -15 -21 -15 -31 0 -16 -8 -19 -45 -19 -33 0 -45 4 -45 15 0 10 -10 15 -30
15 -16 0 -30 3 -30 8 -1 4 -10 18 -20 31 -17 19 -23 21 -35 11 -8 -7 -15 -21
-15 -30 0 -10 -5 -20 -12 -22 -7 -3 -11 -19 -10 -40 2 -24 -2 -38 -13 -42 -12
-4 -15 -23 -15 -86 0 -64 -3 -80 -15 -80 -10 0 -15 -10 -15 -28 0 -26 -1 -27
-55 -25 -46 1 -59 6 -85 31 -16 17 -30 40 -30 52 0 35 -29 36 -60 1 -31 -33
-74 -42 -84 -16 -7 20 -66 20 -66 0 0 -8 -4 -15 -10 -15 -5 0 -9 6 -7 13 1 8
-10 12 -33 12 -33 0 -35 -2 -36 -32 0 -17 -6 -39 -14 -48 -8 -9 -13 -30 -12
-47 2 -22 -3 -31 -16 -34 -14 -4 -17 -13 -14 -39 3 -26 9 -34 30 -38 35 -7 42
-1 42 34 0 17 5 29 13 29 7 0 21 11 31 25 11 14 29 25 42 25 15 0 24 6 24 15
0 20 50 15 72 -7 20 -20 24 -48 8 -48 -5 0 -10 -9 -10 -20 0 -21 -33 -60 -50
-60 -6 0 -10 -4 -10 -10 0 -18 -39 -50 -54 -44 -8 3 -19 -3 -25 -15 -6 -11
-17 -18 -25 -15 -7 3 -19 -2 -26 -11 -8 -10 -29 -15 -62 -15 -35 0 -50 -4 -55
-16 -4 -12 -18 -15 -63 -12 -41 2 -61 -1 -72 -13 -11 -11 -33 -15 -76 -14 -48
2 -62 -1 -64 -13 -2 -12 -18 -15 -81 -13 -62 2 -78 -1 -83 -13 -3 -9 -17 -16
-30 -16 -19 0 -24 -5 -24 -25 0 -16 6 -25 16 -25 27 0 14 -54 -14 -58 -13 -2
-26 -10 -29 -18 -7 -19 -62 -18 -69 1 -8 19 -33 19 -40 0 -4 -11 -21 -15 -59
-15 -39 0 -54 -4 -59 -16 -4 -11 -14 -14 -35 -9 -23 5 -32 2 -40 -14 -7 -13
-17 -18 -27 -14 -10 4 -20 -1 -26 -10 -6 -11 -22 -17 -44 -17 -22 0 -37 -6
-40 -15 -4 -8 -17 -15 -30 -15 -15 0 -24 -6 -24 -15 0 -11 -8 -15 -27 -13 -27
3 -28 1 -31 -49 -2 -43 -9 -58 -33 -83 -29 -28 -35 -30 -110 -30 -64 0 -79 -3
-79 -15 0 -12 -18 -15 -100 -15 -80 0 -102 3 -106 15 -4 11 -21 15 -55 15 -46
0 -49 2 -49 25 0 16 -6 25 -15 25 -8 0 -15 9 -15 20 0 16 7 20 30 20 18 0 33
-6 36 -15 5 -12 29 -15 130 -15 106 0 126 2 131 16 4 10 -1 22 -10 29 -22 16
-21 21 3 45 11 11 33 20 50 20 18 0 33 6 36 15 4 10 20 15 50 15 30 0 43 4 41
13 -1 8 11 12 38 12 30 0 40 4 43 18 3 13 10 15 28 11 18 -5 24 -2 24 10 0 11
9 16 30 16 21 0 30 5 30 16 0 9 7 14 18 12 10 -2 29 9 43 24 13 14 36 28 49
30 30 4 40 47 16 71 -20 19 -21 47 -3 47 10 0 14 18 16 66 2 67 -8 94 -37 94
-24 0 -62 -41 -62 -67 0 -14 -6 -23 -15 -23 -10 0 -15 -10 -15 -30 0 -20 -5
-30 -15 -30 -9 0 -15 -9 -15 -24 0 -13 -7 -26 -15 -30 -8 -3 -15 -15 -15 -27
0 -12 -10 -30 -22 -40 -21 -19 -22 -19 -42 3 -11 12 -20 31 -21 42 0 16 -7 22
-32 24 -28 3 -39 -4 -84 -52 -61 -66 -79 -70 -79 -21 0 22 -6 38 -15 41 -10 4
-15 20 -15 45 0 50 -21 52 -67 7 -32 -31 -44 -68 -22 -68 13 0 49 -38 49 -52
0 -4 -7 -8 -15 -8 -10 0 -15 -10 -15 -30 0 -26 -3 -30 -29 -30 -16 0 -31 -5
-33 -11 -2 -7 -55 -10 -161 -10 -133 2 -158 0 -163 -14 -9 -22 -136 -22 -155
1 -9 11 -29 15 -82 13 -49 -2 -71 2 -77 11 -6 10 -32 14 -85 15 -55 0 -78 4
-85 15 -6 9 -22 14 -45 12 -26 -3 -35 0 -35 12 0 10 -9 16 -22 16 -13 0 -43
23 -79 61 -32 34 -62 58 -68 54 -17 -10 -13 -55 4 -55 9 0 15 -9 15 -21 0 -27
95 -120 114 -113 8 3 19 -3 25 -15 6 -11 17 -18 25 -15 7 3 19 -2 26 -11 7 -8
27 -15 45 -15 20 0 35 -6 39 -15 3 -9 18 -15 40 -15 22 0 38 -6 44 -16 7 -13
19 -16 55 -12 33 4 47 2 51 -8 3 -8 20 -14 40 -14 22 0 38 -6 44 -17 6 -10 21
-16 41 -15 28 1 71 -25 71 -43 0 -2 -16 -20 -35 -40 -37 -37 -79 -46 -89 -20
-4 11 -21 15 -60 15 -30 0 -56 4 -58 10 -1 5 -23 12 -48 14 -24 3 -46 9 -48
15 -2 6 -28 11 -57 11 -38 0 -54 4 -59 15 -4 11 -20 15 -55 15 -34 0 -51 4
-55 15 -3 8 -17 15 -31 15 -14 0 -25 6 -25 13 0 16 -41 42 -62 39 -9 -2 -18 5
-20 14 -4 22 -53 27 -70 7 -11 -13 -9 -18 10 -31 12 -8 22 -21 22 -28 0 -19
-10 -18 -25 3 -16 22 -35 8 -35 -25 -1 -23 -2 -25 -11 -9 -6 11 -22 17 -43 17
-38 0 -50 8 -36 25 7 8 2 10 -18 8 -22 -4 -39 7 -89 55 -40 37 -63 66 -63 80
0 14 -6 22 -16 22 -11 0 -15 6 -11 20 3 10 -1 24 -9 31 -8 6 -14 19 -14 28 0
9 -13 28 -30 41 -16 14 -29 33 -30 43 0 27 -60 87 -86 87 -13 0 -24 8 -27 20
-3 11 -12 20 -20 20 -19 0 -29 -48 -12 -58 7 -4 15 -18 17 -32 2 -14 9 -24 16
-23 7 2 12 -8 12 -22 0 -14 7 -28 15 -31 8 -4 15 -16 15 -29 0 -13 7 -26 16
-29 10 -4 14 -15 12 -33 -2 -21 -9 -29 -28 -31 -29 -5 -49 -29 -50 -59 0 -13
-4 -23 -10 -23 -5 0 -10 11 -10 24 0 28 -43 42 -61 20 -10 -12 -16 -9 -37 13
-14 16 -31 27 -39 25 -18 -4 -53 34 -53 58 0 11 -7 23 -15 26 -8 4 -15 15 -15
26 0 11 -11 29 -25 40 -14 11 -25 30 -25 43 0 12 -7 25 -15 29 -11 4 -15 20
-15 55 0 36 -4 51 -16 55 -13 5 -15 15 -11 42 5 30 3 36 -18 46 -14 6 -22 15
-19 19 3 5 -22 9 -55 9 l-61 0 0 -34 c0 -18 7 -39 15 -46 8 -7 15 -21 15 -31
0 -11 5 -19 10 -19 6 0 10 -11 10 -24 0 -13 7 -29 15 -36 8 -7 15 -21 15 -32
0 -10 7 -21 15 -24 8 -4 15 -16 15 -29 0 -13 7 -26 16 -29 10 -4 14 -14 11
-26 -3 -13 1 -21 15 -26 12 -4 17 -11 13 -21 -3 -11 10 -31 40 -59 25 -24 45
-51 45 -60 0 -9 8 -23 18 -30 16 -13 16 -15 0 -27 -9 -7 -18 -24 -20 -37 -3
-24 -6 -25 -58 -22 -34 2 -59 9 -67 19 -7 9 -19 12 -32 8 -12 -4 -21 -2 -21 4
0 18 -62 74 -84 76 -15 1 -22 9 -24 28 -2 16 -9 27 -19 27 -12 0 -14 8 -11 36
3 27 0 38 -14 45 -12 7 -17 17 -13 28 3 10 -1 24 -10 31 -8 7 -15 21 -15 31 0
11 -7 19 -15 19 -11 0 -15 13 -15 53 0 35 -3 47 -9 38 -8 -12 -11 -9 -16 12
-4 15 -5 36 -2 47 3 11 -1 21 -9 24 -9 3 -14 20 -14 45 0 22 -7 46 -15 55 -9
9 -15 33 -15 61 0 31 -5 47 -15 51 -12 5 -15 24 -15 85 0 62 -3 81 -15 85 -12
5 -15 25 -15 93 0 48 -5 92 -10 97 -16 16 -18 424 -2 424 6 0 12 11 12 25 0
14 7 28 15 31 10 4 15 20 15 45 0 28 4 39 15 39 11 0 15 12 15 51 0 33 6 56
16 66 10 11 14 26 10 44 -4 20 -1 28 13 32 14 3 17 11 13 37 -3 23 0 35 12 42
10 6 16 22 16 43 0 28 4 35 19 35 11 0 23 5 26 10 3 6 1 10 -4 10 -16 0 -13
60 2 66 21 8 23 122 3 130 -9 3 -23 -1 -31 -10 -9 -9 -19 -16 -23 -16 -4 0 -8
-12 -9 -27 0 -14 -8 -30 -17 -35 -11 -6 -14 -17 -10 -37 5 -23 2 -32 -15 -40
-16 -9 -19 -17 -14 -42 4 -23 2 -34 -10 -41 -11 -5 -17 -22 -17 -42 0 -21 -6
-36 -15 -40 -12 -4 -15 -18 -13 -53 2 -27 -1 -49 -6 -50 -18 -3 -25 -28 -19
-69 4 -32 2 -42 -11 -47 -12 -5 -16 -20 -16 -57 0 -38 -4 -50 -15 -50 -11 0
-15 -12 -15 -45 0 -34 -4 -45 -16 -45 -13 0 -15 -15 -13 -90 1 -69 5 -90 15
-90 21 0 20 -146 -1 -154 -21 -8 -21 -99 0 -116 17 -14 22 -136 6 -125 -24 14
-28 -127 -5 -150 10 -10 14 -43 14 -119 0 -88 3 -106 15 -106 12 0 15 -14 15
-64 0 -36 5 -68 10 -71 6 -3 10 -17 10 -31 0 -13 6 -24 13 -24 18 0 47 -36 47
-59 0 -10 14 -28 30 -41 35 -27 39 -59 9 -86 -28 -25 -90 -27 -107 -3 -7 10
-19 16 -27 13 -17 -7 -55 30 -55 55 0 10 -7 24 -15 31 -8 7 -12 17 -8 23 3 5
-1 15 -10 22 -10 7 -18 24 -19 37 -1 15 -7 24 -14 21 -6 -2 -14 6 -17 17 -6
25 -25 23 -41 -4 -9 -13 -7 -19 7 -27 30 -17 20 -57 -25 -102 l-41 -42 -34 31
c-22 21 -31 37 -27 48 4 10 0 18 -10 22 -20 8 -21 60 -2 67 18 7 16 119 -2
125 -9 3 -12 54 -12 198 0 166 -2 194 -15 194 -13 0 -15 20 -15 120 0 100 -3
122 -15 127 -9 3 -19 3 -22 -1 -4 -3 -5 -53 -4 -110 2 -86 0 -104 -13 -109
-22 -9 -22 -92 -1 -101 19 -7 19 -32 0 -40 -8 -3 -15 -17 -15 -32 0 -23 -3
-26 -25 -22 -18 4 -26 0 -30 -13 -4 -11 -10 -19 -15 -19 -17 0 -50 44 -50 67
0 14 -6 23 -15 23 -11 0 -15 12 -15 45 0 33 4 45 15 45 12 0 15 14 15 69 0 54
3 70 16 75 13 5 16 18 12 66 -3 48 -1 61 11 65 13 4 15 18 13 70 -3 55 -1 65
13 65 13 0 16 9 13 53 -2 38 -7 52 -18 52 -9 0 -16 -11 -18 -27 -3 -25 -11
-32 -33 -30 -3 1 -3 -12 -1 -29 3 -22 0 -29 -12 -29 -10 0 -16 -9 -16 -25 0
-14 -7 -28 -15 -31 -8 -4 -15 -16 -15 -28 0 -12 -11 -30 -25 -40 -14 -11 -25
-29 -25 -42 0 -15 -6 -24 -15 -24 -9 0 -15 -10 -15 -26 0 -16 -11 -35 -30 -50
-24 -21 -28 -30 -23 -54 4 -22 1 -31 -11 -36 -9 -3 -16 -17 -16 -30 0 -15 -6
-24 -15 -24 -12 0 -15 -15 -15 -79 0 -61 -3 -80 -15 -85 -8 -3 -15 -16 -15
-28 0 -14 -13 -35 -31 -51 -17 -15 -32 -27 -33 -27 -8 0 9 137 20 147 7 7 11
20 8 28 -4 8 1 18 10 21 11 4 16 19 16 46 0 21 4 37 9 34 5 -3 12 1 15 10 10
27 7 64 -6 65 -30 3 -54 -4 -61 -17 -9 -16 -37 -19 -37 -4 0 6 -12 21 -27 34
-23 20 -27 30 -24 70 2 35 -1 48 -14 52 -14 6 -14 8 1 19 9 6 14 17 10 24 -4
6 0 14 8 17 10 4 16 18 16 35 0 19 5 29 15 29 8 0 15 7 15 15 0 8 5 15 10 15
18 0 100 87 100 105 0 10 26 43 57 74 34 33 56 63 54 74 -1 12 4 17 21 17 23
0 48 27 58 63 3 10 10 19 15 19 6 1 19 13 30 27 11 14 37 43 58 63 20 21 37
45 37 53 0 8 25 39 55 69 34 32 55 62 55 75 0 13 4 19 10 16 6 -4 13 7 16 25
4 17 17 39 30 49 13 10 24 28 24 40 0 12 6 21 15 21 8 0 15 5 15 11 0 5 14 23
31 39 17 15 28 33 25 39 -7 11 69 93 78 84 3 -4 6 7 6 24 0 19 6 33 16 37 10
4 13 13 9 25 -3 12 0 21 10 25 8 3 15 17 15 31 0 16 6 25 15 25 9 0 15 9 15
24 0 13 7 26 15 30 8 3 15 16 15 30 0 13 7 26 15 30 21 8 21 128 0 146 -10 9
-15 32 -15 76 0 50 -3 64 -15 64 -22 0 -22 145 0 154 22 8 22 176 0 176 -23 0
-18 37 6 43 17 5 19 9 9 26 -6 12 -15 21 -20 21 -6 0 -10 39 -10 90 0 71 -3
92 -15 96 -12 5 -15 27 -15 114 l0 107 30 23 c18 13 30 32 30 45 0 13 7 26 16
29 9 4 14 14 12 24 -3 10 6 27 24 42 20 17 28 33 28 57 0 21 6 36 15 39 8 4
15 18 15 34 0 15 7 41 16 59 9 17 13 38 10 46 -3 8 3 19 13 25 15 8 18 18 13
56 -4 37 -1 49 12 56 9 5 16 21 16 35 0 23 3 25 33 19 27 -5 36 -2 57 24 14
16 34 30 46 30 12 0 24 7 28 15 3 8 14 15 25 15 11 0 37 18 59 40 21 22 45 40
52 40 8 0 32 19 53 42 29 31 46 42 63 40 13 -2 24 1 24 7 0 16 38 51 55 51 9
0 27 12 42 28 14 15 32 26 41 24 8 -2 25 9 37 24 13 16 32 29 44 29 11 0 21 3
21 8 0 15 41 47 59 47 11 0 29 14 41 30 12 17 30 30 41 30 11 0 32 14 46 31
17 19 28 26 33 19 4 -7 18 2 38 24 31 35 33 36 107 36 58 0 77 3 81 15 5 11
22 15 70 15 48 0 65 4 72 16 7 13 19 16 51 11 32 -4 44 -1 52 11 8 13 22 16
60 14 38 -3 50 0 55 12 4 12 20 16 55 16 35 0 51 4 55 15 4 11 21 15 55 15 34
0 49 4 49 13 0 10 28 14 120 15 98 1 120 -2 120 -14z"/>
<path d="M3831 6799 c13 -8 97 -13 88 -5 -2 2 -26 6 -53 9 -30 3 -43 1 -35 -4z"/>
<path d="M3618 6768 c-3 -7 -27 -11 -71 -9 -55 2 -67 0 -67 -13 0 -13 -12 -16
-55 -16 -42 0 -55 -3 -55 -15 0 -12 -13 -15 -55 -15 -42 0 -55 -3 -55 -15 0
-11 -13 -15 -54 -15 -38 0 -56 -4 -59 -14 -4 -11 -16 -13 -40 -9 -28 4 -35 2
-39 -14 -5 -17 -12 -19 -60 -15 l-55 4 -181 -181 c-99 -100 -187 -181 -196
-181 -8 0 -51 -37 -96 -82 -71 -71 -80 -84 -75 -108 4 -20 2 -29 -9 -33 -10
-4 -16 -19 -16 -42 0 -22 -6 -38 -15 -41 -8 -4 -15 -16 -15 -29 0 -13 -7 -26
-16 -29 -11 -4 -14 -13 -11 -27 3 -12 0 -22 -9 -26 -8 -3 -14 -14 -14 -24 0
-11 -7 -22 -15 -25 -9 -4 -15 -19 -15 -35 0 -19 -5 -29 -15 -29 -9 0 -15 -9
-15 -24 0 -13 -7 -26 -15 -30 -8 -3 -15 -15 -15 -26 0 -26 -35 -64 -50 -55
-16 10 -77 -56 -82 -87 -2 -20 7 -36 40 -66 24 -22 42 -49 42 -61 0 -12 6 -21
15 -21 9 0 15 -9 15 -25 0 -14 6 -28 14 -31 8 -3 12 -13 9 -25 -3 -11 1 -21
11 -25 9 -3 16 -17 16 -29 0 -30 16 -41 35 -25 22 18 22 200 0 200 -20 0 -19
36 1 44 12 5 15 17 12 56 -2 38 0 50 13 53 11 3 14 13 11 41 -3 28 -1 36 12
36 11 0 16 9 16 30 0 20 5 30 15 30 9 0 15 9 15 25 0 14 7 28 15 31 8 4 15 15
15 26 0 20 58 85 72 81 4 -2 8 2 8 8 0 14 67 79 74 71 3 -3 6 7 6 21 0 27 31
67 51 67 7 0 9 10 5 25 -5 18 -2 25 9 25 8 0 15 7 15 15 0 8 6 15 14 15 8 0
16 12 18 27 2 16 10 27 21 29 10 1 29 14 42 28 13 14 32 26 41 26 9 0 34 19
56 43 23 23 48 41 57 39 10 -1 28 11 41 28 13 18 32 30 45 30 13 0 26 7 29 16
4 9 13 14 21 10 16 -6 55 26 55 44 0 6 11 10 25 10 14 0 28 7 31 15 5 12 24
15 85 15 43 0 79 4 79 9 0 5 9 13 20 16 11 4 18 11 15 16 -4 5 3 9 13 9 11 0
25 7 32 15 7 9 21 13 30 10 11 -4 23 3 33 19 28 42 65 74 84 72 13 -1 19 7 21
27 3 23 7 27 30 25 21 -2 26 1 24 15 -2 13 4 17 32 17 19 0 36 -6 39 -12 5
-17 -64 -83 -83 -80 -9 1 -26 -11 -38 -28 -13 -18 -32 -30 -45 -30 -13 0 -30
-12 -42 -30 -15 -22 -25 -28 -42 -24 -17 5 -23 2 -23 -10 0 -10 -9 -16 -25
-16 -14 0 -28 -7 -31 -15 -4 -8 -13 -15 -21 -15 -14 0 -59 -36 -92 -74 -9 -10
-27 -28 -40 -40 -13 -12 -36 -33 -52 -48 -15 -16 -34 -28 -42 -28 -9 0 -27
-13 -40 -30 -14 -16 -30 -30 -36 -30 -6 0 -11 -7 -11 -16 0 -11 -5 -14 -17
-10 -11 5 -26 -3 -44 -24 -15 -16 -37 -30 -48 -30 -20 0 -23 -4 -25 -40 -1 -8
-10 -15 -22 -16 -21 -1 -144 -119 -144 -139 0 -6 -25 -36 -55 -67 -30 -30 -55
-64 -55 -76 0 -11 -7 -22 -15 -26 -8 -3 -15 -16 -15 -28 -1 -15 -15 -34 -40
-53 -44 -34 -55 -75 -20 -75 11 0 20 7 20 15 0 9 9 15 23 15 13 0 34 13 50 31
14 17 31 28 37 24 5 -3 18 -1 27 4 10 6 15 11 11 11 -13 0 31 40 45 40 16 1
57 35 57 49 0 6 11 11 24 11 13 0 29 7 36 15 7 8 16 13 20 10 4 -3 7 3 6 13
-1 13 5 16 27 14 15 -2 27 1 27 7 0 19 67 81 82 76 9 -4 24 6 38 25 14 18 32
30 46 30 15 0 24 6 24 15 0 9 9 15 24 15 15 0 37 15 62 42 21 24 45 42 53 40
8 -2 26 11 41 28 15 18 33 30 38 26 6 -4 24 7 40 24 16 16 39 30 51 30 12 0
21 6 21 15 0 8 5 15 11 15 12 0 69 60 69 73 0 4 10 7 21 7 13 0 43 22 75 55
30 30 61 55 70 55 8 0 47 31 86 70 38 38 73 69 77 68 20 -2 31 4 31 17 0 12
17 15 90 15 58 0 90 -4 90 -11 0 -14 41 -48 59 -49 7 0 49 -36 92 -80 44 -44
87 -80 95 -80 17 0 84 -64 84 -81 0 -5 11 -9 25 -9 14 0 28 -7 31 -15 4 -10
14 -13 30 -9 15 4 24 2 24 -5 0 -18 38 -51 59 -51 10 0 22 -7 25 -16 3 -9 13
-14 21 -10 19 7 385 -359 385 -386 0 -10 7 -21 15 -24 11 -5 15 -24 15 -80 0
-59 -3 -74 -15 -74 -8 0 -15 -7 -15 -15 0 -9 7 -18 15 -21 10 -4 15 -21 15
-54 0 -33 -5 -50 -15 -54 -12 -4 -15 -26 -15 -111 0 -87 -3 -105 -15 -105 -8
0 -15 -7 -15 -15 0 -9 7 -18 15 -21 9 -4 15 -19 15 -38 0 -23 8 -39 30 -56
l29 -25 1 -256 c0 -219 2 -258 15 -263 10 -3 15 -19 15 -46 0 -27 -5 -43 -15
-46 -12 -5 -15 -28 -15 -123 -1 -115 -1 -116 -30 -145 -17 -16 -30 -38 -30
-48 0 -10 -4 -18 -10 -18 -6 0 -10 -30 -10 -70 0 -56 -3 -70 -15 -70 -11 0
-15 -11 -15 -39 0 -25 -5 -41 -15 -45 -9 -3 -15 -18 -15 -40 0 -22 -6 -36 -16
-40 -12 -4 -15 -16 -12 -40 3 -25 -1 -37 -14 -45 -13 -8 -16 -19 -12 -39 4
-19 1 -32 -10 -41 -10 -9 -16 -29 -16 -58 0 -30 -5 -45 -15 -49 -11 -5 -15
-21 -15 -60 0 -42 -3 -54 -16 -54 -12 0 -15 -10 -13 -51 2 -35 -1 -53 -11 -59
-9 -5 -13 -22 -12 -43 2 -23 -2 -37 -13 -41 -9 -3 -15 -18 -15 -40 0 -21 -6
-36 -15 -40 -11 -4 -15 -22 -15 -70 0 -47 -4 -65 -15 -70 -11 -4 -15 -21 -15
-66 0 -41 -5 -66 -15 -77 -8 -8 -13 -19 -10 -23 6 -10 -30 -50 -45 -50 -5 0
-10 -11 -10 -24 0 -24 -51 -86 -71 -86 -5 0 -9 -10 -9 -21 0 -12 -10 -30 -22
-41 -22 -19 -22 -20 -4 -33 17 -13 27 -6 112 79 59 59 94 102 94 115 0 12 6
21 15 21 11 0 15 11 15 39 0 27 5 41 16 45 10 4 14 14 11 26 -3 13 1 24 13 30
15 8 18 18 13 45 -4 28 -2 35 11 35 10 0 16 8 16 24 0 13 7 26 15 30 8 3 15
17 15 31 0 14 7 28 15 31 10 4 13 13 10 25 -4 12 -1 21 9 25 10 4 16 18 16 39
0 20 6 35 15 39 11 4 15 21 15 61 l0 57 38 -4 c33 -3 37 0 40 22 2 14 10 29
18 33 10 6 14 28 14 72 0 51 3 65 15 65 11 0 15 11 15 40 0 27 5 43 15 46 11
5 14 18 11 52 -3 34 0 49 11 57 13 10 15 30 14 98 -2 73 0 87 13 87 13 0 16
16 16 99 0 79 3 100 15 105 13 4 15 36 15 196 0 153 3 190 14 190 21 0 22 195
1 204 -12 4 -15 23 -15 86 0 62 -3 82 -15 86 -11 5 -15 22 -15 70 0 52 -3 64
-16 64 -14 0 -16 9 -12 51 4 42 2 52 -11 56 -12 3 -16 17 -16 64 -1 55 1 59
22 59 13 0 26 7 29 15 10 26 44 18 44 -10 0 -13 7 -28 17 -33 13 -8 15 -19 10
-55 -5 -35 -3 -46 8 -51 10 -4 15 -21 15 -55 0 -34 4 -51 15 -55 11 -4 15 -22
15 -70 0 -47 4 -65 15 -70 9 -3 15 -18 15 -35 0 -16 -6 -31 -15 -35 -12 -4
-15 -30 -15 -141 l0 -136 40 -37 c28 -25 37 -38 28 -43 -9 -6 -11 -33 -9 -89
2 -72 0 -84 -18 -101 -29 -28 -17 -49 29 -49 21 0 40 -5 42 -12 6 -16 68 -20
69 -4 4 89 -2 251 -10 254 -6 2 -11 11 -11 20 0 8 -8 24 -17 35 -17 19 -17 19
4 13 24 -8 35 5 39 42 2 17 -3 26 -17 29 -10 3 -19 12 -19 19 0 8 -4 14 -10
14 -17 0 -12 110 5 116 8 4 15 13 15 20 0 8 -7 17 -15 20 -11 4 -15 21 -15 59
0 39 -4 54 -16 59 -12 5 -15 17 -12 56 2 41 0 50 -16 54 -16 4 -18 12 -13 52
4 39 2 47 -14 51 -16 4 -17 12 -12 50 5 34 3 43 -8 41 -10 -2 -15 11 -17 47
-2 31 -9 53 -18 58 -11 6 -15 22 -13 54 2 33 -1 48 -14 58 -9 7 -17 25 -17 42
0 17 -7 36 -15 43 -11 9 -14 23 -9 45 5 26 2 33 -13 37 -16 4 -19 12 -15 41 3
27 0 38 -12 43 -9 3 -16 16 -16 28 -1 23 -44 60 -63 53 -7 -2 -21 7 -31 21
-17 22 -17 25 -3 19 15 -5 17 1 17 44 0 35 -4 51 -15 55 -10 4 -15 20 -15 45
0 28 -4 39 -15 39 -9 0 -15 9 -15 24 0 13 -7 26 -15 30 -9 3 -12 12 -8 22 4
10 0 22 -9 28 -9 7 -18 23 -20 36 -4 30 -35 39 -45 13 -12 -32 -31 -43 -75
-43 -38 0 -46 4 -61 30 -12 19 -23 27 -33 23 -10 -4 -42 22 -98 78 -46 46 -96
96 -112 111 -16 15 -34 33 -40 40 -6 7 -24 25 -40 39 -16 15 -56 55 -88 89
-42 43 -65 60 -78 57 -10 -3 -18 -1 -18 5 0 17 -101 108 -121 108 -10 0 -19 7
-19 15 0 8 -7 15 -15 15 -8 0 -15 5 -15 10 0 6 -13 10 -29 10 -20 0 -36 -9
-51 -27 -19 -24 -23 -26 -31 -11 -7 13 -20 15 -69 11 -49 -5 -61 -3 -66 11 -5
13 -23 16 -104 16 -66 0 -100 -4 -102 -12z"/>
<path d="M2147 6119 c-15 -17 -27 -28 -27 -24 0 4 -9 -4 -20 -18 -11 -14 -20
-34 -20 -45 0 -11 -7 -22 -15 -26 -8 -3 -15 -15 -15 -26 0 -11 -7 -23 -15 -26
-8 -4 -15 -16 -15 -29 0 -13 -7 -26 -16 -29 -11 -4 -15 -16 -12 -43 2 -22 -2
-38 -10 -41 -6 -2 -12 -19 -12 -38 0 -22 -6 -37 -15 -40 -10 -4 -15 -20 -15
-44 0 -24 -5 -40 -15 -44 -9 -3 -15 -18 -15 -40 0 -21 -6 -36 -15 -40 -11 -4
-14 -15 -10 -40 3 -26 0 -38 -12 -45 -13 -7 -16 -21 -14 -62 1 -30 8 -57 15
-61 8 -5 11 -45 9 -142 -2 -108 1 -138 12 -150 20 -19 22 -335 3 -354 -17 -17
-18 -173 -1 -179 8 -3 13 -24 13 -59 0 -47 3 -54 19 -54 26 0 31 19 29 123 -1
57 2 91 10 96 18 11 19 485 1 489 -11 2 -13 23 -11 92 3 75 1 91 -12 96 -13 5
-16 24 -16 104 l0 98 28 5 c25 5 28 9 24 40 -3 28 0 36 15 39 14 2 18 12 18
43 0 27 4 39 13 38 7 -2 12 8 12 26 0 16 7 34 15 41 9 7 14 18 12 24 -2 5 9
23 25 38 23 23 28 36 28 78 0 38 4 50 15 50 11 0 15 11 15 40 0 29 4 40 15 40
9 0 15 9 15 21 0 11 6 26 13 34 16 16 10 75 -7 75 -6 0 -24 -14 -39 -31z"/>
<path d="M3760 6104 c0 -13 -12 -15 -66 -13 -51 2 -68 -1 -75 -13 -7 -12 -20
-14 -55 -10 -37 4 -49 1 -56 -12 -5 -9 -18 -16 -29 -16 -11 0 -22 -7 -25 -15
-4 -8 -15 -15 -26 -15 -10 0 -30 -13 -44 -30 -14 -16 -31 -27 -38 -24 -7 3
-20 -2 -29 -10 -9 -9 -25 -16 -36 -16 -12 0 -21 -5 -21 -10 0 -19 -38 -53 -53
-47 -8 3 -24 -8 -38 -24 -13 -16 -32 -29 -42 -29 -10 0 -30 -13 -44 -30 -13
-16 -32 -30 -42 -30 -9 0 -28 -13 -41 -28 -17 -20 -31 -27 -47 -24 -13 2 -23
-1 -23 -7 0 -16 -38 -51 -55 -51 -9 0 -27 -12 -41 -27 -14 -15 -35 -28 -47
-28 -19 0 -22 -6 -22 -39 0 -23 -5 -41 -12 -43 -8 -3 -13 -21 -13 -44 0 -28
-4 -39 -15 -39 -9 0 -15 -9 -15 -25 0 -14 -7 -28 -15 -31 -10 -4 -15 -20 -15
-44 0 -26 -5 -40 -16 -44 -12 -5 -15 -14 -11 -34 4 -20 0 -33 -13 -44 -15 -13
-17 -26 -13 -72 4 -45 2 -57 -11 -62 -11 -4 -16 -19 -16 -45 0 -30 -4 -39 -17
-39 -16 0 -18 -8 -15 -67 3 -53 1 -68 -12 -75 -15 -8 -17 -32 -16 -178 2 -160
1 -170 -20 -192 -18 -19 -22 -21 -31 -8 -8 12 -9 10 -4 -6 4 -14 0 -24 -10
-28 -8 -3 -15 -15 -15 -27 0 -12 -8 -28 -17 -35 -17 -13 -17 -15 0 -28 10 -8
17 -27 17 -50 0 -25 4 -36 15 -36 11 0 15 -12 15 -50 0 -43 4 -55 28 -76 15
-14 27 -31 27 -37 0 -8 18 -11 52 -9 41 3 54 0 59 -12 4 -11 19 -16 45 -16 28
0 39 -4 39 -15 0 -10 11 -15 35 -15 23 0 34 4 33 13 -4 19 83 22 94 3 6 -11
23 -16 53 -16 38 0 50 -6 87 -40 24 -22 46 -40 50 -40 3 0 4 -8 1 -18 -3 -13
6 -28 26 -45 27 -22 31 -32 31 -77 0 -48 -2 -53 -55 -102 -41 -38 -55 -58 -55
-79 0 -34 19 -48 35 -26 19 26 23 21 21 -25 -3 -55 2 -68 25 -68 15 0 19 7 19
40 0 33 3 40 20 40 10 0 24 8 30 18 8 12 13 13 16 5 8 -19 5 -28 -8 -28 -9 0
-14 -22 -16 -68 -2 -48 -7 -70 -17 -74 -20 -7 -19 -43 0 -43 8 0 15 -6 15 -14
0 -9 9 -13 25 -11 15 1 25 -3 25 -10 0 -18 60 -25 67 -8 3 8 21 13 43 13 49 0
52 9 45 144 -5 73 -3 106 4 106 7 0 11 -22 11 -54 0 -34 5 -56 12 -58 8 -3 11
-21 9 -51 -2 -35 1 -49 13 -53 9 -3 16 -12 16 -20 0 -8 9 -14 20 -14 11 0 20
7 20 15 0 8 5 15 10 15 6 0 10 -7 10 -15 0 -11 13 -15 54 -15 30 0 57 4 60 9
3 4 6 54 7 110 1 68 5 101 13 102 6 0 21 2 34 5 29 5 28 -3 -3 -28 -24 -18
-25 -25 -25 -118 l0 -98 39 -4 c31 -3 44 2 61 19 19 20 22 34 23 122 l1 99 40
5 c53 5 57 0 24 -27 -16 -12 -28 -31 -28 -43 0 -11 -7 -24 -16 -27 -10 -4 -14
-15 -12 -33 2 -22 9 -29 31 -31 16 -2 27 -9 27 -18 0 -12 14 -14 73 -12 70 3
72 4 75 31 2 15 9 27 18 27 20 0 20 88 -1 96 -20 8 -19 20 5 44 24 24 50 26
50 5 0 -9 -7 -18 -15 -21 -11 -5 -15 -22 -15 -69 0 -44 -5 -66 -15 -75 -9 -7
-14 -19 -11 -26 3 -8 -4 -18 -14 -24 -21 -11 -27 -40 -9 -40 7 0 17 -6 23 -14
6 -8 29 -16 51 -18 37 -3 40 -1 43 25 2 15 9 27 18 27 21 0 19 66 -3 79 -17
10 -17 10 0 11 14 0 17 10 17 64 0 62 1 64 28 69 37 7 40 1 9 -26 -30 -25 -37
-74 -12 -83 11 -5 15 -22 15 -65 0 -49 4 -62 26 -86 25 -27 26 -27 40 -8 8 11
23 30 34 42 15 17 19 39 20 110 3 120 4 116 -25 111 -19 -4 -25 -1 -25 13 0
26 44 25 70 -1 21 -21 29 -100 10 -100 -7 0 -10 -24 -8 -62 2 -48 7 -63 18
-63 10 0 17 14 21 45 3 25 7 41 8 35 1 -5 6 -3 11 5 5 8 7 32 3 52 -7 49 3 85
26 93 13 4 17 12 13 31 -2 14 -11 28 -18 31 -10 3 -14 23 -14 62 0 48 3 59 25
75 14 10 25 27 25 37 0 10 9 23 20 29 12 6 17 16 13 26 -3 9 7 26 27 44 18 16
29 33 26 39 -4 6 2 19 14 31 16 16 33 20 80 20 45 0 62 4 66 15 4 9 19 15 41
15 41 0 103 54 103 90 0 15 4 20 14 17 19 -8 96 67 96 92 0 10 7 21 15 25 22
8 21 428 -1 450 -18 19 -18 62 0 69 22 9 23 315 1 323 -8 3 -15 16 -15 29 0
13 -7 25 -15 29 -9 3 -15 18 -15 40 0 19 -6 37 -12 40 -10 5 -10 7 0 12 18 9
15 63 -5 71 -14 6 -14 7 4 14 16 6 19 14 15 34 -2 15 -11 29 -19 32 -11 4 -14
23 -11 80 2 71 1 76 -25 99 -15 12 -27 28 -27 34 0 5 -7 10 -15 10 -8 0 -15 7
-15 15 0 8 -7 15 -15 15 -9 0 -15 9 -15 25 0 14 -4 25 -9 25 -5 0 -11 9 -14
20 -3 11 -10 19 -15 18 -5 -2 -26 17 -47 42 -21 25 -40 45 -44 45 -3 0 -5 3
-4 8 2 4 -3 7 -11 7 -8 0 -23 14 -33 30 -9 17 -24 30 -31 30 -9 0 -12 6 -8 16
6 16 -35 64 -55 64 -5 0 -9 5 -9 10 0 6 -9 20 -19 32 -15 15 -27 19 -46 14
-20 -5 -31 -2 -39 10 -11 14 -30 16 -128 15 -96 -2 -116 1 -121 13 -5 14 -33
16 -187 16 -157 0 -180 -2 -180 -16z m-554 -942 l-4 -107 24 0 c22 0 24 4 24
51 0 37 4 54 15 58 8 3 15 17 15 30 0 18 -4 24 -15 20 -11 -5 -15 1 -15 25 l0
31 58 1 c31 0 69 2 84 4 16 2 29 -2 32 -11 3 -8 19 -14 38 -14 26 0 43 -11 81
-49 33 -34 45 -54 41 -65 -5 -12 0 -19 15 -23 20 -5 21 -11 21 -129 0 -106 -2
-124 -17 -133 -15 -8 -17 -21 -14 -81 2 -62 0 -74 -18 -91 -11 -10 -29 -19
-40 -19 -10 0 -21 -7 -25 -15 -3 -8 -15 -15 -26 -15 -11 0 -23 -7 -27 -16 -3
-9 -12 -13 -21 -9 -8 3 -23 -3 -34 -14 -10 -11 -25 -18 -33 -15 -8 4 -17 -1
-21 -10 -8 -20 -40 -21 -48 -1 -3 8 -17 15 -31 15 -14 0 -28 -7 -31 -15 -5
-11 -24 -15 -80 -15 -61 0 -78 -4 -94 -20 -11 -11 -20 -27 -20 -35 0 -9 -8
-25 -19 -36 -17 -18 -19 -18 -25 -3 -4 10 -13 14 -24 12 -13 -4 -26 5 -41 27
-16 23 -28 31 -41 28 -12 -3 -22 1 -26 11 -3 9 -17 16 -30 16 -15 0 -24 6 -24
15 0 9 -9 15 -25 15 -48 0 -60 26 -57 119 2 68 0 86 -13 93 -10 6 -15 24 -15
58 0 29 -5 51 -12 54 -10 5 -10 7 0 12 6 3 12 17 12 30 0 15 6 24 15 24 9 0
15 9 15 23 0 24 55 94 71 90 5 -2 9 4 9 12 0 9 9 15 25 15 14 0 28 7 31 15 4
8 10 13 14 10 4 -3 10 4 13 15 4 17 11 20 36 15 23 -4 33 -1 37 10 4 8 17 15
30 15 12 0 27 7 32 16 7 12 20 15 49 13 35 -4 39 -2 35 15 -4 16 0 18 33 14
30 -3 39 -1 43 14 2 10 8 15 13 12 5 -3 7 -53 5 -112z m1152 100 c2 -7 25 -12
53 -12 35 0 51 -4 55 -15 4 -10 20 -15 44 -15 25 0 40 -5 44 -16 5 -12 22 -15
91 -13 69 1 89 -1 105 -16 10 -9 23 -14 29 -11 17 11 51 -32 51 -65 0 -17 7
-37 15 -45 12 -12 15 -41 15 -126 0 -100 -2 -110 -18 -106 -15 4 -17 -1 -14
-34 4 -32 0 -42 -27 -65 -17 -15 -31 -35 -31 -44 0 -10 -5 -19 -12 -21 -7 -3
-11 -19 -10 -41 2 -26 -2 -39 -13 -43 -8 -3 -15 -17 -15 -30 0 -19 -5 -24 -25
-24 -14 0 -28 -7 -31 -15 -7 -18 -115 -16 -122 3 -6 18 -91 16 -98 -2 -7 -18
-61 -18 -68 1 -3 7 -17 13 -31 13 -14 0 -25 5 -25 10 0 16 -38 50 -56 50 -8 0
-22 7 -30 14 -8 9 -27 13 -44 11 -22 -3 -31 1 -35 15 -5 15 -12 18 -36 13 -25
-5 -35 0 -64 31 -24 26 -35 47 -35 67 0 17 -6 32 -15 35 -12 5 -15 26 -15 100
0 94 -2 99 -37 95 -9 -1 -13 14 -13 49 0 34 4 50 13 50 22 0 46 -37 49 -77 2
-30 7 -38 23 -38 18 0 20 8 23 65 2 45 8 67 18 73 11 6 13 18 10 43 -5 26 -2
34 9 34 10 0 15 10 15 30 0 25 4 30 25 30 14 0 28 7 32 16 3 9 16 15 32 14 42
-3 51 -1 51 13 0 17 112 16 118 -1z m-486 -169 c10 -9 18 -26 18 -37 -1 -19
-2 -19 -11 -3 -7 12 -23 17 -54 17 -25 0 -45 -4 -45 -10 0 -5 -9 -10 -20 -10
-11 0 -20 7 -20 15 0 9 9 15 25 15 14 0 28 7 31 15 8 20 53 19 76 -2z m18
-322 c0 -25 5 -41 15 -45 12 -4 15 -25 15 -101 0 -52 4 -95 9 -95 17 0 71 -61
71 -81 0 -11 7 -22 15 -25 11 -4 15 -21 15 -55 0 -35 4 -51 15 -55 10 -4 15
-20 15 -49 0 -29 -5 -45 -15 -49 -8 -3 -15 -15 -15 -26 0 -12 -13 -32 -29 -46
-16 -13 -28 -32 -27 -41 0 -10 -8 -19 -19 -21 -26 -6 -69 -48 -61 -61 4 -5 2
-12 -4 -16 -6 -4 -10 32 -10 104 l0 111 -60 0 -60 0 0 -40 c0 -27 -5 -43 -15
-46 -8 -4 -15 -17 -15 -30 0 -20 -5 -24 -30 -24 -19 0 -33 7 -40 20 -6 10 -16
17 -24 14 -7 -3 -30 11 -51 31 -33 33 -37 41 -33 81 2 35 0 45 -14 50 -22 7
-24 34 -3 34 9 0 15 9 15 24 0 13 7 26 15 30 8 3 15 17 15 31 0 16 6 25 15 25
9 0 15 9 15 24 0 13 6 29 14 36 8 6 12 18 9 26 -3 7 2 17 11 20 11 4 16 19 16
46 0 30 3 39 14 35 18 -7 27 26 20 70 -4 24 0 35 14 44 11 7 17 19 15 29 -3
10 3 27 13 39 15 18 30 21 86 21 l68 0 0 -39z m506 -461 c93 0 116 3 120 15 4
10 20 15 50 15 32 0 44 -4 44 -15 0 -8 9 -15 20 -15 36 0 60 -31 60 -77 0 -40
-2 -43 -26 -43 -15 0 -38 12 -56 30 -29 29 -32 30 -124 30 l-94 0 0 -34 c0
-19 5 -36 12 -38 7 -3 5 -12 -8 -26 -20 -24 -44 -29 -44 -10 0 6 -17 28 -38
48 -22 20 -42 48 -46 63 -3 15 -11 27 -16 27 -15 0 -12 18 8 40 14 17 18 18
20 5 3 -12 23 -15 118 -15z m-1126 -20 c25 -25 25 -31 0 -53 -17 -15 -43 -17
-181 -17 -165 0 -177 3 -192 43 -6 16 3 17 103 17 91 0 110 3 110 15 0 12 14
15 70 15 57 0 74 -4 90 -20z m248 -687 c12 -12 13 -18 4 -21 -6 -2 -12 -14
-12 -27 0 -12 -6 -25 -14 -28 -8 -3 -16 -18 -19 -34 -2 -15 -5 7 -6 50 -1 64
2 77 15 77 8 0 23 -8 32 -17z m-230 -76 c2 -56 0 -69 -18 -87 l-20 -20 0 74
c0 41 -5 78 -10 81 -16 10 -3 22 22 20 21 -1 23 -7 26 -68z"/>
<path d="M3108 5179 c-25 -14 -23 -166 2 -179 10 -5 20 -6 24 -3 9 9 7 181 -2
187 -4 2 -15 0 -24 -5z"/>
<path d="M2966 5151 c-11 -17 -8 -223 3 -234 22 -22 30 9 33 120 2 87 0 114
-10 118 -18 7 -20 6 -26 -4z"/>
<path d="M2874 5087 c-3 -8 -4 -30 -2 -49 2 -26 8 -34 26 -36 22 -3 23 -1 20
45 -2 36 -7 49 -21 51 -9 2 -20 -3 -23 -11z"/>
<path d="M2797 5044 c-4 -4 -7 -101 -7 -216 0 -179 2 -209 15 -215 9 -3 18 -4
20 -2 2 2 5 101 6 219 3 186 1 215 -12 218 -8 1 -18 0 -22 -4z"/>
<path d="M2745 4959 c-13 -21 -12 -109 1 -120 22 -18 34 0 34 51 0 69 -16 101
-35 69z"/>
<path d="M2857 4964 c-4 -4 -7 -85 -7 -181 0 -167 1 -173 20 -173 20 0 20 5
18 177 -3 166 -9 199 -31 177z"/>
<path d="M4367 5183 c-4 -3 -7 -21 -7 -40 0 -26 4 -33 20 -33 12 0 21 7 22 18
0 9 2 24 2 32 2 22 -23 38 -37 23z"/>
<path d="M4296 5161 c-22 -24 -18 -75 7 -79 12 -3 17 3 17 21 0 14 7 30 15 37
8 7 15 19 15 26 0 20 -34 17 -54 -5z"/>
<path d="M4199 5153 c-1 -5 0 -23 1 -41 1 -21 -4 -34 -14 -38 -22 -8 -22 -74
-1 -74 8 0 24 9 35 20 25 25 34 127 12 135 -19 7 -32 6 -33 -2z"/>
<path d="M4112 5068 c3 -55 5 -63 23 -63 18 0 20 8 23 63 3 61 2 62 -23 62
-25 0 -26 -1 -23 -62z"/>
<path d="M4548 5083 c-21 -25 -29 -64 -16 -80 13 -16 38 0 38 26 0 9 7 25 15
35 26 34 -9 51 -37 19z"/>
<path d="M4610 5062 c0 -26 -5 -42 -15 -46 -16 -6 -20 -41 -6 -51 5 -3 23 7
39 22 24 23 30 36 28 68 -1 33 -5 41 -23 43 -21 3 -23 -1 -23 -36z"/>
<path d="M4690 5050 c0 -48 2 -51 23 -48 19 3 22 9 22 48 0 39 -3 45 -22 48
-21 3 -23 0 -23 -48z"/>
<path d="M4443 5034 c-3 -8 1 -22 9 -30 13 -14 17 -14 32 1 13 13 14 20 5 31
-15 19 -38 18 -46 -2z"/>
<path d="M4722 4898 c2 -75 6 -93 18 -93 12 0 16 17 18 85 2 52 8 87 15 92 7
4 -2 8 -21 8 l-33 0 3 -92z"/>
<path d="M4697 4793 c-4 -3 -7 -16 -7 -29 0 -12 -7 -24 -15 -28 -8 -3 -15 -17
-15 -31 0 -15 -6 -25 -14 -25 -11 0 -13 -9 -9 -34 4 -28 1 -36 -15 -45 -34
-18 -17 -43 26 -39 l36 3 -3 53 c-2 49 -1 53 17 48 16 -6 19 -3 14 20 -3 16 1
29 9 34 18 12 23 61 7 71 -16 11 -23 11 -31 2z"/>
<path d="M2715 5709 c-4 -6 -4 -13 -1 -16 3 -4 6 -1 6 6 0 7 7 11 15 8 8 -4
17 -2 20 3 4 6 -3 10 -14 10 -11 0 -23 -5 -26 -11z"/>
<path d="M2041 5583 c-1 -7 -10 -13 -20 -13 -21 0 -31 -17 -23 -37 7 -22 32
-14 43 14 5 14 8 31 5 37 -3 7 -5 6 -5 -1z"/>
<path d="M2283 5183 c-18 -7 -18 -224 -1 -241 9 -9 9 -12 0 -12 -7 0 -12 -14
-12 -35 0 -28 4 -35 19 -35 18 0 19 10 20 165 1 91 -2 165 -6 164 -5 0 -14 -3
-20 -6z"/>
<path d="M1853 4900 c0 -47 2 -66 4 -42 2 23 2 61 0 85 -2 23 -4 4 -4 -43z"/>
<path d="M2249 4762 l-36 -37 -1 -113 c-1 -97 -4 -116 -19 -128 -17 -13 -17
-15 3 -31 15 -13 21 -27 19 -46 -3 -18 2 -30 11 -34 8 -3 14 -18 14 -34 0 -16
5 -29 10 -29 6 0 21 -11 33 -23 31 -33 63 -40 64 -14 1 11 -6 21 -18 24 -13 4
-19 14 -19 34 0 20 -5 29 -16 29 -11 0 -14 5 -10 16 3 9 6 22 6 31 0 9 6 13
14 10 10 -4 12 0 9 14 -4 13 0 19 11 19 14 0 16 15 16 105 0 87 -3 105 -15
105 -12 0 -15 14 -15 70 0 82 -8 87 -61 32z"/>
<path d="M1913 4379 c-16 -16 -5 -39 17 -39 23 0 32 13 24 34 -7 19 -25 21
-41 5z"/>
<path d="M2050 4257 c0 -86 3 -106 16 -111 12 -5 15 -19 13 -65 -2 -44 2 -63
14 -76 11 -10 15 -25 11 -39 -3 -14 1 -29 10 -39 9 -8 16 -25 16 -36 0 -12 6
-21 15 -21 9 0 15 -9 15 -24 0 -13 7 -26 15 -30 8 -3 15 -16 15 -30 0 -13 7
-27 15 -30 9 -3 15 -11 14 -18 -3 -26 1 -39 11 -33 6 4 10 -9 10 -32 0 -32 7
-44 44 -77 27 -24 42 -44 39 -53 -3 -9 7 -27 26 -43 26 -24 31 -36 31 -73 0
-32 5 -47 16 -51 12 -5 14 -14 9 -45 -5 -32 -3 -39 13 -43 15 -4 17 -12 14
-42 -3 -28 -1 -36 12 -36 9 0 16 -7 16 -15 0 -9 9 -15 25 -15 14 0 25 4 25 9
0 20 -13 41 -21 35 -5 -3 -9 15 -9 40 0 34 -4 46 -15 46 -11 0 -15 11 -15 39
0 27 -5 41 -16 45 -13 5 -15 16 -11 51 4 37 1 47 -13 55 -12 6 -16 17 -12 35
2 15 -2 33 -11 43 -11 12 -16 40 -17 92 -2 96 -1 99 11 78 6 -11 22 -18 39
-18 30 0 70 -30 70 -51 0 -15 62 -85 72 -82 4 2 8 -15 8 -37 0 -27 5 -43 15
-46 10 -4 15 -20 15 -45 0 -28 4 -39 15 -39 9 0 15 -9 15 -25 0 -14 7 -28 15
-31 10 -4 13 -15 10 -34 -3 -19 1 -33 14 -44 11 -10 17 -23 15 -30 -3 -7 2
-19 11 -26 8 -7 15 -23 15 -36 0 -15 6 -24 15 -24 10 0 15 -10 15 -32 1 -47
30 -78 74 -78 32 0 36 -3 36 -25 0 -14 7 -28 16 -32 8 -3 13 -12 10 -20 -3 -8
-1 -11 4 -8 13 8 50 -31 50 -54 0 -10 14 -28 30 -41 20 -15 28 -29 25 -40 -3
-11 1 -20 10 -24 8 -3 15 -15 15 -26 0 -11 7 -23 15 -26 9 -4 15 -19 15 -35 0
-16 3 -29 8 -29 16 0 72 -60 72 -77 0 -19 32 -53 50 -53 6 0 10 -12 10 -26 0
-19 16 -42 56 -80 30 -30 52 -54 48 -54 -4 0 6 -10 22 -22 16 -12 41 -35 55
-50 18 -19 36 -28 58 -28 18 0 34 -6 37 -14 4 -11 18 -13 61 -9 45 5 58 3 68
-11 11 -15 37 -16 236 -14 l224 3 3 39 3 38 -53 -4 c-38 -3 -56 0 -64 11 -9
11 -39 14 -153 12 -120 -2 -142 0 -147 13 -5 13 -26 16 -125 16 -107 0 -119 2
-129 20 -6 10 -16 17 -23 15 -18 -7 -77 50 -77 74 0 12 -7 24 -16 28 -9 3 -14
13 -11 23 3 13 0 16 -16 12 -14 -4 -18 -2 -13 7 5 8 0 14 -14 18 -17 5 -21 11
-17 31 6 32 -1 52 -18 52 -8 0 -11 8 -8 20 3 12 -1 22 -11 26 -9 3 -16 16 -16
29 0 13 -12 32 -30 45 -18 14 -30 32 -30 46 0 13 -4 24 -10 24 -5 0 -10 8 -10
18 0 10 -13 29 -30 42 -16 14 -29 33 -30 43 0 10 -11 28 -25 41 -14 13 -25 32
-25 43 0 11 -14 30 -30 43 -21 16 -29 29 -25 41 4 12 -1 22 -15 29 -11 6 -18
15 -15 20 3 4 -2 15 -10 23 -8 9 -15 27 -15 41 0 16 -6 26 -15 26 -9 0 -15 9
-15 24 0 13 -7 26 -15 30 -9 3 -15 19 -15 41 0 22 -6 38 -15 41 -8 4 -15 17
-15 30 0 14 -7 27 -15 30 -10 4 -14 14 -10 28 2 11 2 15 -1 9 -11 -26 -24 -12
-24 26 0 27 -5 41 -16 45 -11 4 -14 13 -11 27 4 15 0 23 -14 26 -10 3 -19 12
-19 19 0 8 -4 14 -10 14 -5 0 -10 11 -10 25 0 16 -6 25 -15 25 -9 0 -15 9 -15
25 0 14 -7 28 -15 31 -8 4 -15 17 -15 30 0 13 -6 25 -12 25 -7 1 -18 2 -23 3
-14 2 -135 124 -135 136 0 6 -11 8 -25 4 -19 -5 -25 -2 -25 10 0 9 -6 16 -14
16 -8 0 -17 7 -20 15 -3 9 -11 15 -18 13 -20 -4 -138 114 -138 139 0 11 -7 23
-15 27 -10 3 -15 19 -15 46 0 30 -4 40 -16 40 -12 0 -15 9 -12 38 3 32 0 37
-20 40 -22 3 -22 2 -22 -101z"/>
<path d="M5633 4299 c-12 -12 -5 -142 8 -147 5 -2 9 -21 9 -43 0 -26 5 -42 15
-45 10 -4 15 -20 15 -45 0 -27 4 -39 14 -39 8 0 16 -7 20 -15 3 -8 14 -15 25
-15 11 0 24 -7 29 -17 12 -21 42 -10 42 17 0 11 -7 20 -15 20 -11 0 -15 11
-15 40 0 26 -5 43 -14 46 -8 3 -13 11 -10 19 3 7 -2 19 -10 28 -9 9 -16 25
-16 36 0 12 -6 21 -15 21 -11 0 -15 11 -15 40 0 23 -6 42 -14 47 -8 4 -16 19
-18 32 -3 28 -19 36 -35 20z"/>
<path d="M5431 4190 c-2 -56 1 -69 15 -74 27 -10 35 7 32 69 -2 48 -7 59 -24
66 -20 7 -21 4 -23 -61z"/>
<path d="M2023 4060 c0 -25 2 -35 4 -22 2 12 2 32 0 45 -2 12 -4 2 -4 -23z"/>
<path d="M1900 3848 c0 -12 3 -18 7 -14 11 10 12 36 2 36 -5 0 -9 -10 -9 -22z"/>
<path d="M5874 3655 c-4 -9 -2 -21 4 -27 15 -15 44 -1 40 19 -4 23 -36 29 -44
8z"/>
<path d="M4397 3583 c-4 -3 -7 -21 -7 -40 0 -26 4 -33 20 -33 17 0 20 7 20 40
0 38 -14 52 -33 33z"/>
<path d="M2860 3549 c0 -5 5 -7 12 -3 7 5 8 3 3 -6 -5 -8 -2 -18 9 -26 15 -10
17 -25 14 -78 -3 -67 5 -82 36 -70 9 4 14 28 15 85 2 66 -1 79 -13 79 -9 0
-16 7 -16 15 0 10 -10 15 -30 15 -16 0 -30 -5 -30 -11z"/>
<path d="M2760 3500 c0 -6 7 -13 15 -17 24 -9 27 1 5 15 -13 8 -20 8 -20 2z"/>
<path d="M3047 3443 c-15 -15 -7 -43 13 -43 15 0 20 7 20 25 0 24 -18 34 -33
18z"/>
<path d="M4390 3415 c0 -19 5 -35 10 -35 6 0 10 -4 10 -10 0 -5 -9 -10 -19
-10 -11 0 -34 -14 -51 -32 l-32 -32 1 -127 c1 -79 -2 -130 -9 -134 -7 -4 -10
35 -10 119 0 119 -1 126 -20 126 -11 0 -20 -5 -20 -10 0 -6 -19 -29 -42 -51
-40 -38 -41 -41 -39 -98 2 -45 -1 -60 -13 -64 -9 -4 -16 -18 -16 -32 0 -18 -5
-25 -20 -25 -16 0 -20 7 -20 35 0 24 5 35 15 35 12 0 15 16 15 80 l0 80 -45 0
c-31 0 -47 -5 -51 -15 -4 -10 -20 -15 -45 -15 l-39 0 0 -59 c0 -38 5 -63 14
-70 8 -7 13 -24 11 -39 -2 -21 -8 -26 -24 -25 -13 2 -25 -4 -29 -15 -4 -10 -9
11 -12 53 -5 68 -6 70 -33 73 -18 2 -29 -2 -33 -13 -6 -14 -8 -14 -25 1 -11
10 -19 31 -19 48 -1 19 -11 43 -26 60 -21 24 -29 27 -47 18 -12 -6 -16 -11 -9
-11 18 -1 16 -81 -2 -81 -8 0 -16 -6 -19 -13 -3 -9 -16 -12 -35 -9 -18 2 -33
-1 -38 -9 -13 -21 -4 -113 12 -122 16 -9 19 -37 4 -37 -5 0 -10 7 -10 15 0 8
-9 15 -20 15 -16 0 -20 -7 -20 -31 0 -18 -4 -28 -10 -24 -6 4 -8 15 -5 26 4
12 1 21 -9 25 -13 5 -16 25 -16 110 0 84 -3 106 -15 110 -8 4 -15 15 -15 26 0
10 -12 31 -27 45 -16 14 -27 29 -26 34 2 5 -15 9 -37 9 -26 0 -42 6 -48 17 -6
10 -16 14 -26 10 -13 -5 -16 -23 -16 -103 0 -96 0 -97 -19 -73 -10 13 -19 37
-19 54 0 16 -5 31 -11 33 -6 2 -11 21 -11 42 0 35 -2 38 -32 43 -46 6 -62 -20
-68 -113 -5 -71 -4 -75 23 -99 15 -13 27 -33 27 -43 0 -16 -5 -14 -28 12 -19
20 -34 29 -45 24 -14 -5 -17 1 -17 34 0 29 -5 44 -17 51 -12 7 -13 11 -5 11
20 0 38 22 44 53 4 22 -2 35 -33 68 -21 22 -43 38 -49 34 -5 -3 -10 -24 -10
-46 0 -28 -4 -39 -15 -39 -11 0 -15 -11 -15 -43 0 -35 5 -47 30 -67 29 -25 41
-72 20 -85 -6 -4 -10 6 -10 23 0 21 -6 31 -20 35 -17 4 -20 0 -20 -34 0 -30 4
-39 18 -39 16 -1 16 -1 0 -11 -24 -13 -26 -99 -3 -99 8 0 15 -7 15 -15 0 -8 7
-15 16 -15 11 0 14 -5 10 -17 -5 -11 3 -26 24 -44 16 -15 30 -35 30 -44 0 -9
14 -29 30 -44 21 -18 29 -33 24 -44 -4 -11 0 -19 10 -23 9 -3 16 -17 16 -30 0
-13 5 -24 10 -24 21 0 48 -39 46 -64 -2 -14 1 -23 6 -20 5 4 16 -4 25 -16 8
-12 21 -19 29 -16 7 3 18 -2 23 -11 7 -14 25 -16 108 -14 80 2 102 0 112 -13
12 -14 51 -16 292 -16 218 0 278 3 276 13 -1 6 7 12 18 12 21 0 65 37 65 55 0
5 6 9 12 7 7 -1 14 8 16 21 2 12 40 59 85 105 45 45 81 87 79 94 -4 17 36 55
50 47 7 -5 8 -3 3 5 -4 8 1 18 14 28 15 10 20 21 16 34 -4 13 -2 19 8 19 17 0
30 79 15 95 -5 5 -30 10 -56 10 l-47 0 -3 138 c-2 116 0 138 13 143 20 8 20
70 0 78 -8 3 -15 17 -15 31 0 18 -5 25 -20 25 -16 0 -20 -7 -20 -35z m0 -239
c0 -92 -3 -115 -15 -120 -8 -3 -15 -12 -15 -20 0 -7 7 -16 15 -20 17 -6 21
-66 4 -66 -15 0 -80 -73 -75 -86 5 -13 -41 -57 -53 -50 -5 3 -14 -1 -21 -8
-19 -24 -50 10 -50 54 0 34 26 70 50 70 6 0 10 7 10 15 0 9 9 15 21 15 12 0
36 15 55 34 26 26 34 42 34 70 0 20 5 36 10 36 6 0 10 38 10 95 0 57 4 95 10
95 6 0 10 -45 10 -114z m-924 -133 c18 -7 18 -32 -1 -39 -18 -7 -54 33 -55 60
0 11 8 28 18 39 17 19 17 18 20 -17 2 -21 10 -40 18 -43z m-129 5 c-2 -13 -4
-5 -4 17 -1 22 1 32 4 23 2 -10 2 -28 0 -40z m473 -33 c0 -41 -5 -61 -19 -76
-19 -20 -19 -20 -17 26 1 26 7 50 15 55 8 4 12 17 8 29 -3 12 -1 21 4 21 5 0
9 -25 9 -55z"/>
<path d="M3409 3337 c5 -5 21 -7 37 -5 27 3 26 4 -8 9 -22 3 -34 1 -29 -4z"/>
<path d="M4525 3239 c-4 -10 -4 -23 0 -29 8 -13 50 -6 49 8 -1 7 -2 18 -2 25
-3 21 -40 18 -47 -4z"/>
<path d="M4470 3233 c0 -7 -7 -13 -16 -13 -11 0 -14 -8 -12 -32 2 -25 8 -33
23 -33 23 0 33 43 16 72 -6 10 -11 12 -11 6z"/>
<path d="M1500 2861 c0 -298 2 -340 16 -345 8 -3 13 -10 10 -15 -6 -10 30 -22
38 -13 3 3 6 34 6 69 0 49 -3 63 -15 63 -13 0 -15 39 -15 290 0 283 0 290 -20
290 -20 0 -20 -7 -20 -339z"/>
<path d="M2687 3133 c-4 -3 -7 -26 -7 -50 0 -36 3 -43 19 -43 24 0 33 24 25
66 -6 32 -22 43 -37 27z"/>
<path d="M2935 3124 c9 -9 18 -14 21 -11 9 9 -6 27 -22 27 -13 0 -13 -2 1 -16z"/>
<path d="M924 3025 c-8 -20 3 -48 18 -43 6 2 16 12 22 21 8 13 7 20 -4 27 -21
14 -30 12 -36 -5z"/>
<path d="M894 2965 c-4 -9 -2 -21 4 -27 15 -15 44 -1 40 19 -4 23 -36 29 -44
8z"/>
<path d="M5410 2585 c0 -7 -7 -15 -15 -19 -8 -3 -15 -14 -15 -25 0 -10 -16
-35 -36 -55 -40 -40 -79 -47 -89 -16 -5 15 -14 19 -43 17 -26 -1 -37 2 -37 13
0 23 -36 25 -42 2 -3 -12 -11 -23 -19 -26 -8 -3 -14 -19 -14 -39 0 -19 -7 -40
-15 -47 -8 -7 -13 -22 -11 -34 3 -11 5 -24 5 -28 2 -14 32 -8 37 7 4 10 20 15
45 15 28 0 39 4 39 15 0 12 15 15 79 15 62 0 80 3 85 16 4 12 19 15 58 14 78
-2 90 -1 83 10 -6 10 7 14 33 11 7 -1 15 5 18 14 4 9 18 15 35 15 24 0 29 4
29 25 0 14 -3 24 -7 23 -10 -4 -53 39 -53 52 0 6 -14 10 -31 10 -16 0 -28 4
-24 9 6 11 -18 19 -62 19 -21 1 -33 -4 -33 -13z"/>
<path d="M2657 2513 c-2 -4 -3 -24 -3 -43 1 -28 5 -35 21 -35 17 0 20 7 20 40
0 29 -4 41 -17 43 -9 2 -18 -1 -21 -5z"/>
<path d="M2900 2400 c-29 -7 -39 -37 -16 -46 9 -3 16 -16 16 -29 0 -13 7 -25
15 -29 8 -3 15 -17 15 -31 0 -14 5 -25 11 -25 7 0 17 -7 24 -17 7 -9 17 -13
23 -9 17 10 15 46 -2 46 -9 0 -12 8 -9 24 4 17 -1 27 -14 35 -14 7 -19 18 -15
39 5 34 -14 51 -48 42z"/>
<path d="M4174 2366 c-3 -9 -4 -22 -1 -30 3 -8 -2 -16 -14 -19 -22 -6 -27 -47
-5 -47 8 0 16 -7 20 -15 10 -27 34 -16 39 18 2 17 1 34 -3 37 -3 3 -6 18 -6
34 1 32 -20 47 -30 22z"/>
<path d="M2986 2194 c-8 -21 11 -45 30 -37 22 8 18 53 -5 53 -10 0 -22 -7 -25
-16z"/>
<path d="M4530 2036 c0 -10 8 -16 22 -16 12 0 19 1 17 3 -2 1 -12 9 -21 16
-15 12 -18 11 -18 -3z"/>
</g>
</svg>
