<?xml version="1.0" standalone="no"?>
<!DOCTYPE svg PUBLIC "-//W3C//DTD SVG 20010904//EN"
 "http://www.w3.org/TR/2001/REC-SVG-20010904/DTD/svg10.dtd">
<svg version="1.0" xmlns="http://www.w3.org/2000/svg"
 width="1127.623789pt" height="980.678483pt" viewBox="0 0 1127.623789 980.678483"
 preserveAspectRatio="xMidYMid meet">
<metadata>
Created by potrace 1.12, written by Peter Selinger 2001-2015
</metadata>
<g transform="translate(-83.376211,1058.678483) scale(0.100000,-0.100000)"
fill="#ffffff" stroke="none">
<path d="M6359 10555 c-24 -19 -55 -35 -69 -35 -22 0 -373 -79 -700 -157 -58
-13 -215 -47 -350 -74 -351 -70 -342 -68 -368 -92 -13 -12 -60 -45 -105 -74
-45 -28 -111 -70 -147 -93 -36 -22 -102 -64 -147 -93 -45 -29 -148 -97 -230
-153 -81 -55 -213 -144 -293 -198 -80 -54 -152 -105 -160 -114 -8 -10 -28 -25
-45 -36 -26 -16 -118 -83 -150 -109 -86 -70 -298 -207 -320 -207 -8 0 -33 -20
-57 -43 -37 -38 -51 -45 -97 -50 -56 -7 -80 -25 -81 -63 0 -46 -91 -366 -141
-499 -70 -187 -182 -395 -256 -474 -44 -47 -60 -91 -49 -135 3 -12 10 -97 16
-187 10 -152 38 -400 60 -529 5 -30 8 -185 6 -345 -3 -238 -7 -297 -20 -327
-23 -53 -21 -67 19 -133 35 -57 36 -62 45 -209 6 -83 15 -175 21 -204 9 -44 8
-63 -6 -105 -16 -50 -121 -258 -155 -307 -10 -14 -29 -47 -43 -75 -31 -61
-186 -293 -237 -355 -59 -71 -233 -328 -274 -405 -20 -38 -49 -81 -64 -94 -87
-76 -117 -111 -142 -166 -27 -59 -60 -103 -150 -197 -72 -76 -138 -151 -157
-178 -9 -14 -25 -31 -35 -38 -34 -25 -90 -86 -170 -187 -43 -55 -85 -107 -91
-115 -14 -17 -104 -135 -127 -165 -8 -11 -51 -56 -96 -100 -54 -53 -89 -97
-103 -130 -12 -27 -29 -57 -37 -66 -25 -28 -27 -115 -5 -223 17 -87 23 -101
53 -127 30 -25 84 -49 114 -49 19 0 99 38 120 57 11 10 32 51 47 92 33 91 95
203 108 196 11 -8 12 -38 0 -51 -4 -5 -13 -22 -19 -39 -55 -158 -199 -520
-233 -586 -41 -79 -43 -89 -43 -164 1 -85 14 -125 42 -125 9 1 41 23 71 50 48
44 54 54 68 117 8 37 15 97 14 133 0 71 29 174 59 213 10 13 22 37 26 53 3 16
18 56 31 89 14 33 32 77 40 97 9 21 24 45 34 54 10 9 21 32 25 50 4 24 12 34
25 34 14 0 19 7 19 26 0 31 15 60 45 88 13 12 73 118 134 236 61 118 116 222
121 230 5 8 21 39 36 68 15 28 33 52 41 52 16 0 17 4 -6 -88 -57 -227 -144
-649 -177 -851 -8 -52 -19 -102 -25 -112 -5 -10 -9 -59 -9 -109 0 -104 17
-149 70 -190 35 -27 85 -42 112 -34 9 3 21 18 27 34 8 25 16 30 42 30 19 0 37
7 45 18 18 23 17 107 -2 198 -13 67 -13 78 -1 93 16 18 27 76 31 166 1 33 8
73 15 90 7 16 11 59 9 96 -2 52 2 72 17 95 l19 29 8 -50 c10 -72 27 -292 38
-500 5 -99 15 -215 20 -257 10 -69 22 -252 37 -528 4 -71 0 -113 -13 -168
l-18 -73 24 -45 c29 -52 122 -150 151 -159 15 -5 33 3 61 25 22 18 52 35 66
39 27 7 27 9 30 100 1 50 -2 108 -7 129 -9 29 -8 40 4 51 8 8 16 13 19 10 4
-4 48 -86 140 -264 64 -122 93 -152 181 -194 113 -53 130 -57 169 -38 38 18
116 84 116 98 0 4 -43 73 -96 151 -118 177 -171 283 -185 368 -6 36 -22 124
-36 195 -14 72 -27 174 -29 229 -2 54 -9 105 -15 112 -8 10 -10 45 -6 113 3
54 1 104 -3 111 -4 7 -4 26 1 42 9 33 11 205 3 343 -3 50 -5 99 -4 110 10 163
10 303 1 455 -11 179 -11 188 10 255 12 39 23 83 25 98 2 15 8 35 13 45 5 9
37 130 71 267 80 327 129 494 175 605 13 30 47 120 75 200 61 169 85 220 105
220 9 0 16 -16 20 -47 4 -27 13 -65 20 -85 16 -42 15 -48 -48 -218 -156 -422
-163 -444 -227 -725 -33 -143 -49 -188 -74 -202 -65 -39 -87 -343 -52 -743 9
-107 21 -217 26 -245 5 -27 11 -84 14 -125 2 -41 12 -102 21 -135 25 -89 34
-142 39 -226 2 -42 11 -100 19 -130 8 -30 21 -80 27 -112 7 -33 23 -82 36
-110 15 -33 24 -70 24 -102 0 -35 7 -62 25 -90 13 -22 25 -53 25 -70 0 -16 9
-43 20 -60 11 -16 20 -43 20 -60 1 -36 30 -102 59 -133 15 -15 20 -29 16 -43
-5 -15 -1 -25 14 -35 13 -10 21 -26 21 -45 0 -16 8 -46 19 -67 10 -20 31 -75
46 -121 24 -70 33 -86 59 -100 33 -17 81 -63 135 -130 29 -36 39 -42 62 -37
22 4 35 -2 65 -29 29 -27 47 -35 75 -35 21 0 49 -5 63 -11 20 -9 29 -9 41 1 9
7 25 10 41 6 58 -15 82 14 59 71 -8 19 -15 37 -15 39 0 9 37 3 47 -7 16 -16
37 -1 23 15 -5 7 -12 28 -14 45 -2 20 -17 47 -38 69 -60 65 -137 175 -193 277
-21 39 -53 95 -70 125 -18 30 -36 69 -39 85 -4 17 -14 37 -21 45 -8 8 -35 69
-61 135 -25 66 -50 122 -55 126 -11 7 -29 98 -22 116 7 17 22 16 66 -2 46 -19
49 -19 77 5 13 11 31 20 41 20 27 0 68 -49 75 -90 4 -19 17 -65 30 -101 13
-36 26 -96 28 -132 5 -74 42 -162 112 -262 23 -33 56 -89 74 -125 18 -36 50
-85 71 -109 22 -24 39 -48 39 -52 0 -5 20 -9 44 -9 44 0 59 -10 81 -53 5 -11
16 -23 24 -25 14 -5 12 26 -5 85 -5 19 -2 23 15 23 11 0 28 -11 37 -25 9 -13
24 -27 34 -30 9 -3 31 -28 48 -55 35 -56 68 -69 59 -22 -7 35 0 46 38 59 18 6
31 17 31 29 1 10 2 24 3 31 2 17 59 27 76 13 28 -23 17 33 -24 116 -21 44 -42
91 -46 105 -4 13 -18 39 -32 57 -13 17 -29 47 -35 65 -6 17 -18 41 -28 52 -9
11 -24 46 -34 77 -9 32 -21 60 -26 63 -6 4 -10 13 -10 21 0 20 22 8 112 -62
39 -30 76 -54 83 -54 17 0 62 -58 115 -149 23 -40 51 -83 61 -95 10 -11 27
-32 38 -45 12 -13 21 -28 21 -33 0 -12 60 -135 90 -183 63 -104 188 -245 215
-245 25 0 92 -38 109 -62 14 -20 17 -20 33 -6 34 29 71 28 104 -3 17 -16 37
-29 45 -29 18 0 18 47 -1 80 -31 55 -4 55 50 0 44 -45 72 -40 36 6 -20 25 -20
29 -6 50 8 13 15 37 15 55 0 24 3 30 16 25 9 -3 19 -6 22 -6 4 0 25 -16 47
-35 22 -19 43 -35 46 -35 3 0 19 -11 35 -25 57 -50 185 -104 334 -140 80 -20
161 -40 180 -46 19 -6 85 -23 145 -39 61 -16 123 -33 138 -39 16 -6 42 -11 58
-11 45 0 146 -31 168 -52 13 -11 35 -18 60 -18 34 0 51 9 120 66 68 56 79 69
71 84 -16 31 -68 61 -128 77 -31 8 -71 23 -88 34 -34 20 -127 44 -244 60 -41
6 -89 19 -106 28 -16 10 -47 21 -68 25 -73 14 -339 115 -405 155 -75 44 -97
65 -175 160 -56 68 -174 287 -161 299 4 4 33 -22 63 -58 99 -115 180 -187 249
-226 121 -66 158 -83 178 -84 11 0 45 -9 75 -20 31 -12 119 -27 205 -35 162
-17 429 -61 457 -76 26 -14 155 -10 225 6 79 18 232 32 448 41 178 6 172 5
302 66 29 14 61 125 44 156 -22 41 -157 91 -197 73 -20 -9 -32 -7 -64 10 -22
12 -40 27 -40 33 0 7 24 51 53 97 54 87 87 112 87 65 0 -14 -3 -26 -8 -26 -4
0 -15 -18 -25 -41 -20 -46 -16 -55 39 -89 28 -18 37 -19 56 -9 13 6 84 74 158
150 96 99 142 139 158 139 12 0 22 -3 22 -7 -1 -5 -34 -44 -75 -88 -43 -46
-75 -89 -75 -101 0 -11 8 -36 17 -55 9 -19 19 -67 21 -111 3 -43 10 -82 16
-87 6 -5 35 -5 65 -1 40 5 58 13 72 31 48 66 148 169 164 169 7 0 32 -30 56
-67 63 -97 71 -103 129 -103 43 0 52 3 59 23 5 12 26 63 46 112 34 86 200 375
239 417 23 25 30 17 46 -56 7 -33 24 -77 38 -98 l25 -39 -22 -27 c-26 -32 -50
-82 -58 -122 -4 -23 1 -38 21 -65 15 -19 33 -35 40 -35 7 0 21 -9 31 -20 15
-16 15 -22 5 -35 -7 -8 -19 -15 -27 -15 -20 0 -104 -45 -131 -70 -20 -19 -80
-49 -337 -170 -133 -62 -338 -135 -438 -156 -81 -17 -127 -40 -127 -64 0 -5
14 -25 31 -44 37 -42 35 -68 -6 -77 -17 -4 -123 -7 -236 -8 -182 -1 -213 1
-264 19 -140 48 -164 7 -61 -102 49 -52 59 -58 94 -58 22 0 77 -7 123 -16 159
-31 548 -2 713 53 51 16 95 54 97 82 1 9 0 32 -1 51 0 20 8 57 19 82 18 42 28
51 88 81 37 19 79 38 93 42 14 4 66 27 115 50 156 74 182 85 267 111 46 14
108 35 138 47 44 16 85 21 210 24 107 3 166 9 190 19 38 16 85 77 76 100 -3 7
-27 23 -53 36 -107 51 -49 84 237 134 392 67 488 86 640 126 85 22 196 49 245
60 184 41 320 139 399 289 33 64 38 80 32 112 -5 29 -14 41 -39 53 -31 15 -37
14 -162 -30 -142 -50 -175 -75 -175 -133 0 -23 -11 -42 -45 -77 -46 -48 -69
-57 -79 -31 -7 20 28 183 52 236 21 46 30 79 39 140 6 43 56 109 83 109 11 0
31 -11 46 -25 33 -30 44 -32 44 -5 0 24 3 24 40 5 17 -9 40 -12 59 -9 26 6 31
3 37 -20 7 -29 34 -35 53 -12 6 7 24 16 39 19 15 3 47 19 72 36 66 45 91 38
96 -25 4 -51 78 -124 126 -124 17 0 46 -5 65 -12 27 -10 38 -9 68 5 20 9 46
17 59 17 31 0 37 17 47 120 12 135 52 335 79 395 9 22 22 59 29 81 6 23 17 47
24 52 21 17 61 1 109 -44 42 -39 139 -92 175 -96 10 0 39 0 64 0 44 2 47 4 72
51 18 32 27 64 27 94 0 25 5 49 10 52 15 9 12 35 -4 35 -7 0 -19 -7 -26 -15
-16 -19 -40 -19 -40 0 0 9 15 25 34 36 38 22 50 49 82 187 9 40 21 75 25 78 5
3 6 29 3 57 -5 42 -3 56 10 66 23 19 20 31 -9 31 -14 0 -25 5 -25 10 0 6 11
20 25 32 25 22 25 22 25 198 l0 177 -67 20 c-79 23 -93 41 -93 121 0 29 -10
102 -22 163 -26 135 -61 200 -131 243 -44 27 -57 30 -155 33 -95 4 -111 2
-139 -16 l-33 -21 0 -89 c0 -51 -4 -93 -10 -96 -6 -4 -23 8 -38 25 -15 17 -61
69 -103 116 -42 47 -91 113 -109 147 -18 34 -90 175 -160 312 -70 138 -141
275 -157 305 -17 30 -53 97 -82 149 -28 52 -63 119 -77 150 -14 31 -54 115
-89 186 -35 72 -74 155 -88 185 -14 30 -57 125 -96 211 -39 85 -76 180 -83
209 -9 39 -22 63 -51 92 -35 34 -44 38 -91 38 -29 0 -61 6 -71 14 -17 12 -49
100 -77 211 -5 22 -23 81 -39 132 -16 50 -29 111 -29 136 0 31 -6 49 -19 61
-11 10 -22 37 -26 59 -4 23 -14 61 -22 85 -13 36 -14 47 -3 67 11 20 10 26 -5
41 -22 22 -45 76 -45 105 0 12 -9 30 -21 40 -16 14 -23 37 -30 100 -6 55 -16
89 -29 107 -11 13 -20 35 -20 49 0 13 -11 56 -25 95 -14 39 -25 80 -25 90 0
10 -9 31 -20 46 -15 20 -23 54 -30 122 -13 125 -25 171 -64 255 -45 96 -86
200 -86 220 0 33 -30 72 -67 89 -42 19 -66 55 -106 161 -12 33 -54 121 -92
195 -38 74 -82 164 -98 200 -15 35 -40 80 -55 99 -14 19 -31 54 -37 76 -14 58
-55 102 -127 137 -34 16 -87 49 -117 73 -31 23 -87 57 -126 74 -38 17 -77 36
-85 41 -74 46 -276 154 -470 250 -192 96 -242 116 -268 112 -29 -4 -43 4 -125
74 -50 43 -94 81 -97 84 -5 5 -126 97 -214 163 -72 54 -190 109 -234 109 -20
1 -56 -3 -80 -7 -39 -7 -46 -5 -72 20 -27 26 -37 28 -178 41 -83 8 -161 18
-175 23 -14 6 -60 13 -101 16 -247 17 -218 19 -267 -20z m351 -326 c41 -10
125 -25 185 -34 61 -9 114 -20 119 -26 29 -28 106 2 132 52 8 16 23 29 33 29
21 0 129 -80 361 -269 203 -164 199 -161 385 -342 88 -86 185 -178 215 -205
29 -27 114 -107 188 -179 73 -71 161 -149 194 -172 59 -42 61 -42 127 -36 75
7 110 21 139 58 11 14 25 25 30 25 32 0 161 -234 203 -367 25 -82 58 -164 70
-177 18 -20 9 -56 -16 -68 -20 -9 -25 -18 -25 -48 0 -39 2 -41 130 -100 46
-21 208 -441 277 -715 21 -84 59 -232 89 -348 14 -54 35 -114 46 -133 14 -24
22 -61 27 -118 5 -68 11 -90 34 -123 22 -32 27 -50 27 -101 0 -37 8 -86 20
-120 48 -136 53 -234 19 -354 -21 -73 -22 -78 -5 -103 9 -14 28 -31 42 -37 13
-6 24 -15 24 -20 0 -4 6 -8 13 -8 8 0 24 -11 37 -25 31 -33 22 -49 -49 -90
-28 -16 -51 -34 -51 -41 0 -6 9 -22 21 -35 43 -49 46 -67 52 -303 5 -222 1
-276 -24 -276 -7 0 -34 14 -61 32 -33 20 -67 33 -99 36 -59 6 -61 12 -23 121
25 73 26 78 13 167 -11 83 -11 97 5 139 l18 47 -23 16 c-13 9 -43 31 -68 47
-42 28 -45 34 -63 110 -22 93 -16 175 30 401 l26 132 -28 143 c-15 79 -45 216
-66 304 -21 88 -48 204 -61 258 -24 109 -46 137 -105 137 -48 0 -75 -13 -117
-56 -39 -40 -43 -53 -27 -82 13 -24 50 -166 60 -232 5 -30 20 -90 35 -133 20
-60 24 -88 19 -126 -4 -33 -2 -57 9 -77 26 -52 72 -282 82 -414 21 -276 16
-325 -39 -366 -25 -19 -25 -20 -15 -104 11 -89 5 -387 -12 -545 -23 -227 -38
-345 -44 -355 -4 -6 -11 -57 -16 -113 -5 -56 -15 -131 -23 -167 -29 -123 -41
-185 -43 -215 -2 -35 -21 -112 -34 -137 -5 -10 -9 -29 -9 -42 0 -14 -16 -69
-36 -123 -23 -62 -39 -129 -45 -182 -13 -121 -49 -171 -139 -197 l-57 -16 -11
-75 c-16 -100 -50 -195 -140 -393 -120 -265 -270 -630 -286 -694 -7 -28 -26
-51 -96 -111 -19 -17 -89 -77 -155 -135 -66 -58 -149 -130 -185 -160 -70 -59
-201 -181 -233 -217 -20 -22 -47 -31 -47 -15 0 4 84 93 186 197 182 187 349
392 408 502 16 28 42 66 59 83 25 26 33 45 43 108 36 232 59 343 103 487 92
300 120 400 165 584 26 101 59 227 75 280 16 53 46 152 66 221 21 69 53 165
71 214 47 121 110 349 117 417 6 61 57 168 126 264 33 46 36 54 33 112 -1 35
-7 74 -12 89 -15 38 -12 107 5 141 8 17 22 84 31 149 16 125 16 123 -22 309
-9 44 -16 89 -16 100 1 11 6 76 11 145 5 69 10 213 10 321 1 188 0 200 -25
265 -22 60 -56 120 -75 134 -3 3 -14 20 -24 39 -15 30 -17 56 -13 205 5 177
25 290 69 394 24 56 24 87 -2 129 -23 37 -23 32 8 310 10 88 -56 184 -291 419
-78 78 -188 189 -246 249 -75 77 -136 127 -215 179 -155 102 -256 162 -285
171 -55 17 -110 52 -225 144 -66 53 -125 100 -131 106 -6 5 -24 21 -40 34 -16
14 -75 66 -130 117 -56 50 -114 100 -130 110 -16 10 -31 21 -34 24 -18 21
-174 101 -213 110 -67 14 -232 2 -278 -21 -20 -10 -78 -58 -130 -107 -101 -96
-132 -122 -339 -282 -74 -57 -144 -113 -155 -123 -19 -18 -129 -102 -260 -197
-33 -24 -66 -50 -74 -57 -7 -8 -39 -30 -70 -50 -31 -19 -58 -39 -61 -42 -3 -4
-30 -22 -60 -41 -30 -19 -102 -68 -159 -108 -112 -78 -296 -192 -311 -192 -4
0 -10 -3 -12 -7 -1 -5 -23 -21 -48 -38 -45 -30 -121 -85 -130 -95 -3 -3 -39
-28 -80 -54 -41 -27 -138 -93 -215 -146 -152 -106 -404 -266 -440 -280 -12 -4
-39 -38 -61 -74 -42 -71 -61 -79 -56 -25 5 62 32 128 62 149 16 11 49 48 75
83 25 34 53 70 60 80 8 9 29 43 47 75 18 31 38 61 45 65 7 4 13 14 13 22 0 7
22 37 48 67 26 29 80 91 118 138 74 88 158 173 210 212 17 13 58 50 91 83 64
65 63 64 138 115 59 39 338 242 345 250 3 3 34 28 70 55 101 78 171 147 177
177 8 39 32 57 197 143 164 85 166 86 293 164 168 104 198 125 251 177 65 65
67 78 7 72 -40 -5 -43 -4 -35 13 28 51 -17 54 -57 4 -15 -20 -41 -43 -58 -50
-16 -8 -39 -29 -50 -46 -24 -36 -211 -179 -308 -235 -38 -21 -108 -65 -156
-96 -48 -32 -92 -58 -98 -58 -7 0 -26 12 -43 26 l-31 27 -45 -22 c-25 -13 -72
-33 -105 -46 -54 -22 -261 -138 -331 -186 -15 -11 -30 -19 -34 -19 -4 0 -30
-17 -58 -38 -28 -21 -67 -48 -86 -60 -20 -11 -46 -29 -57 -39 -12 -10 -82 -59
-156 -110 -163 -112 -197 -143 -230 -208 -14 -27 -61 -99 -106 -160 -44 -60
-89 -121 -98 -135 -65 -89 -179 -224 -235 -275 -73 -67 -94 -103 -162 -280
-76 -200 -131 -415 -120 -463 4 -15 16 -39 27 -53 17 -24 20 -53 28 -260 20
-557 23 -756 9 -764 -18 -11 -31 15 -18 38 7 14 7 22 -2 27 -6 4 -11 31 -10
66 0 32 -4 142 -9 244 -11 224 -27 285 -132 510 -79 167 -112 220 -189 303
-39 41 -70 79 -70 85 0 5 15 20 33 32 18 12 45 40 60 61 16 22 45 48 66 58 59
30 117 94 148 162 15 35 47 99 71 144 24 44 54 105 68 135 14 30 36 75 49 100
46 91 103 248 129 357 l27 112 67 65 c38 36 117 102 178 147 60 44 120 94 132
110 13 16 38 37 55 45 18 9 154 139 302 289 l270 273 60 6 c84 8 318 69 390
101 33 15 83 29 112 32 33 4 59 13 69 24 13 14 31 19 73 19 31 0 80 6 108 14
29 8 76 17 105 21 29 4 71 15 93 25 22 9 85 25 140 34 55 9 138 30 185 45 73
25 96 28 160 24 41 -3 109 -13 150 -24z m-2220 -494 c0 -8 -4 -15 -10 -15 -5
0 -10 7 -10 15 0 8 5 15 10 15 6 0 10 -7 10 -15z m-30 -76 c0 -5 -7 -9 -15 -9
-15 0 -20 12 -9 23 8 8 24 -1 24 -14z m50 -120 c0 -6 -5 -19 -11 -30 -10 -20
-11 -20 -24 -2 -9 13 -10 22 -3 30 13 16 38 17 38 2z m-770 -451 c0 -13 -59
-89 -82 -106 -10 -7 -24 -25 -32 -40 -26 -52 -104 -298 -115 -359 -11 -68 -36
-123 -89 -198 -64 -91 -122 -222 -193 -440 -27 -85 -31 -92 -76 -120 -45 -29
-48 -32 -45 -70 1 -22 3 -79 5 -126 1 -48 7 -92 14 -100 13 -16 32 -120 63
-350 20 -145 21 -188 17 -580 -5 -393 -25 -841 -40 -855 -12 -12 -26 8 -50 74
-36 98 -65 207 -77 289 -16 117 -15 126 31 171 l42 40 -11 79 c-6 43 -14 193
-17 333 -3 140 -10 291 -15 335 -5 44 -14 136 -20 205 -6 69 -16 167 -21 219
-6 51 -8 142 -5 201 4 90 9 116 30 157 28 53 69 180 116 361 31 117 69 217
156 412 25 58 57 131 69 163 40 97 94 159 210 237 44 30 89 62 99 72 19 17 36
16 36 -4z m3715 -143 c339 -38 481 -61 509 -82 14 -10 66 -70 116 -133 50 -63
115 -140 143 -171 29 -30 72 -80 97 -110 25 -29 55 -62 67 -72 13 -10 58 -60
100 -110 84 -100 118 -138 204 -232 31 -34 61 -77 67 -96 19 -59 33 -238 33
-424 -1 -221 8 -263 77 -369 59 -90 68 -116 77 -241 5 -68 1 -128 -15 -235
-11 -79 -24 -148 -29 -154 -5 -6 -12 -28 -16 -49 -7 -36 1 -87 41 -279 18 -87
18 -145 -2 -264 -16 -91 -16 -102 1 -171 9 -41 17 -101 17 -133 0 -53 -6 -71
-63 -181 -63 -120 -65 -121 -119 -145 -69 -31 -82 -44 -135 -125 -51 -79 -89
-101 -220 -124 -261 -48 -261 -48 -306 -115 -13 -19 -41 -58 -61 -86 -21 -28
-38 -54 -38 -57 0 -18 -136 -247 -163 -275 -28 -29 -32 -39 -30 -82 1 -27 14
-82 28 -122 43 -121 43 -118 1 -118 l-36 0 0 -137 c0 -98 -4 -146 -14 -164 -7
-15 -21 -49 -30 -77 -16 -46 -36 -69 -50 -55 -11 12 6 200 24 253 26 80 31
115 19 149 -13 36 -24 40 -114 38 -63 -2 -70 -4 -70 -22 0 -13 14 -27 40 -41
l40 -20 0 -62 c-1 -34 -2 -114 -3 -177 l-2 -115 -53 -54 c-53 -55 -54 -55 -91
-45 -21 6 -44 8 -52 5 -38 -14 -42 0 -36 137 4 107 2 139 -11 162 -10 22 -13
43 -8 75 10 63 16 70 62 70 32 0 39 4 39 19 0 10 -8 29 -19 42 l-19 23 -55
-17 c-30 -10 -58 -24 -61 -33 -3 -8 -9 -77 -12 -152 -6 -120 -5 -139 10 -151
22 -19 20 -46 -9 -100 -13 -25 -29 -58 -34 -73 -12 -33 -41 -36 -136 -13 -89
21 -102 47 -61 118 35 60 84 224 83 279 0 41 5 52 37 88 59 66 36 84 -66 54
-58 -18 -60 -19 -54 -49 4 -16 9 -71 12 -120 6 -90 6 -91 -32 -167 l-39 -77
-43 19 c-40 18 -45 18 -77 3 -19 -9 -35 -20 -35 -25 0 -20 -32 -5 -57 27 -24
30 -34 35 -72 35 l-44 0 6 80 c6 77 35 160 57 160 16 0 60 50 60 70 0 22 -16
28 -94 32 l-60 3 -3 -195 c-4 -220 -9 -250 -44 -267 -35 -17 -186 -20 -201 -5
-10 10 -9 35 4 112 15 85 15 103 4 125 -22 42 1 103 62 168 34 34 35 38 20 54
-16 15 -19 15 -42 -1 -24 -15 -28 -15 -52 0 -22 15 -27 15 -35 3 -12 -20 -11
-184 2 -228 7 -24 8 -64 2 -116 l-8 -80 -40 -13 c-159 -53 -215 -10 -215 165
0 78 4 95 30 148 36 73 39 119 8 146 -24 19 -45 23 -72 13 -18 -7 -22 -83 -6
-113 5 -10 12 -83 15 -162 3 -79 8 -156 11 -172 12 -61 -61 -35 -97 34 -10 21
-19 58 -19 81 0 24 -8 80 -17 125 -14 66 -15 93 -7 134 10 49 10 51 -13 60
-13 5 -33 9 -44 9 -18 0 -19 -8 -19 -131 0 -131 8 -169 36 -169 12 0 14 -11 9
-62 -12 -114 -42 -139 -140 -117 -56 12 -58 12 -76 -12 -16 -21 -21 -22 -38
-12 -12 7 -35 13 -53 13 -53 0 -107 19 -119 42 -26 49 -6 293 30 365 35 70 24
106 -19 63 -17 -17 -23 -18 -40 -8 -10 7 -23 9 -27 4 -4 -4 -7 -102 -6 -217 2
-115 0 -209 -5 -209 -23 1 -30 28 -41 160 -22 264 -22 263 -55 275 -25 8 -31
6 -51 -19 l-22 -28 -7 36 c-7 39 13 97 43 119 37 28 142 156 160 197 36 79 30
102 -56 232 -105 157 -167 235 -205 258 -56 34 -204 54 -357 47 l-136 -6 -130
44 c-71 23 -155 48 -185 55 -106 23 -127 30 -144 49 -9 10 -39 95 -66 189 -27
93 -54 182 -60 197 -23 60 -8 102 87 252 24 37 41 53 62 58 40 8 40 9 45 350
3 233 7 298 25 390 27 137 57 265 77 327 8 26 26 98 39 160 13 62 31 131 39
153 8 22 15 47 16 57 0 9 13 45 28 80 16 34 32 77 36 93 4 17 25 69 47 117 21
48 54 142 73 208 19 67 42 130 52 141 9 10 92 67 183 126 91 59 185 121 208
138 22 16 97 66 165 110 67 44 191 127 273 184 83 58 186 125 230 149 44 25
122 72 174 105 61 39 120 69 170 84 42 12 121 36 176 53 95 28 265 56 385 63
30 2 156 4 280 5 182 2 267 -3 445 -23z m-2943 -160 c0 -5 -5 -11 -11 -13 -6
-2 -11 4 -11 13 0 9 5 15 11 13 6 -2 11 -8 11 -13z m-17 -205 c0 -7 -6 -15
-12 -17 -8 -3 -13 4 -13 17 0 13 5 20 13 18 6 -3 12 -11 12 -18z m-11 -595
c-4 -8 -15 -15 -25 -15 -21 0 -26 16 -6 23 24 10 36 7 31 -8z m-1154 -83 c0
-34 -16 -52 -47 -52 -30 0 -30 27 0 57 30 30 47 29 47 -5z m1172 -137 c-4 -34
-3 -35 32 -35 20 0 36 -4 36 -9 0 -13 -57 -34 -75 -28 -20 8 -30 54 -16 83 16
35 28 29 23 -11z m-61 -108 c-8 -8 -11 -5 -11 9 0 27 14 41 18 19 2 -9 -1 -22
-7 -28z m83 -13 c10 -25 7 -34 -9 -34 -9 0 -15 9 -15 25 0 28 15 34 24 9z
m-73 -79 c-1 -15 -24 -12 -29 3 -3 9 2 13 12 10 10 -1 17 -7 17 -13z m67 -132
c6 -19 -25 -16 -32 3 -4 11 -1 14 11 12 9 -2 18 -9 21 -15z m-1506 -418 c0 -5
-5 -11 -11 -13 -6 -2 -11 4 -11 13 0 9 5 15 11 13 6 -2 11 -8 11 -13z m738
-355 c0 -5 -7 -10 -15 -10 -8 0 -15 5 -15 10 0 6 7 10 15 10 8 0 15 -4 15 -10z
m116 -292 c7 -62 20 -171 28 -243 9 -71 19 -174 23 -227 l6 -97 -40 -16 c-22
-9 -46 -27 -53 -40 -21 -39 -8 -123 33 -210 40 -83 44 -100 25 -111 -17 -11
-80 66 -139 174 -78 140 -93 190 -84 282 3 41 8 136 11 210 6 189 32 280 81
280 16 0 33 32 33 64 0 17 9 30 28 40 15 8 29 13 31 10 2 -2 9 -54 17 -116z
m-238 -80 c-3 -7 -13 -13 -23 -13 -10 0 -20 6 -22 13 -3 7 5 12 22 12 17 0 25
-5 23 -12z m-237 -600 c26 -101 131 -411 147 -437 37 -61 239 -259 317 -311
137 -92 267 -190 336 -254 37 -34 87 -79 113 -101 36 -32 62 -71 124 -195 43
-85 127 -249 186 -365 59 -115 126 -255 148 -310 73 -184 238 -474 474 -830
62 -93 141 -224 177 -290 35 -66 80 -150 100 -187 21 -37 37 -77 37 -90 1 -41
38 -106 85 -150 26 -24 61 -63 78 -88 38 -54 76 -94 139 -141 42 -33 55 -37
130 -42 150 -11 412 -37 473 -47 91 -14 260 -29 460 -40 192 -10 260 -23 274
-49 5 -9 12 -33 16 -52 l7 -37 -54 -13 c-40 -11 -139 -14 -408 -14 -331 1
-363 2 -465 24 -305 63 -396 96 -475 173 -105 103 -238 255 -275 317 -50 81
-78 124 -86 131 -13 11 -207 308 -223 342 -10 20 -24 42 -32 49 -8 6 -14 17
-14 24 0 7 -31 60 -70 117 -84 123 -195 286 -212 311 -10 13 -30 18 -81 21
-37 2 -70 5 -73 8 -3 3 -27 66 -55 139 -27 73 -56 140 -64 149 -8 9 -15 26
-15 37 0 11 -10 28 -22 36 -19 13 -20 16 -5 16 21 1 22 14 1 32 -21 17 -40 56
-49 99 -4 19 -27 76 -50 125 -24 50 -48 106 -53 125 -18 60 -69 195 -90 236
-21 42 -119 171 -162 215 -39 40 -78 62 -123 70 -23 4 -54 11 -68 14 -22 6
-27 3 -32 -17 -19 -68 20 -265 108 -553 19 -60 47 -155 63 -210 16 -55 48
-144 71 -199 22 -54 41 -107 41 -117 0 -19 -1 -19 -38 0 -49 25 -55 34 -77
101 -10 30 -23 66 -31 80 -12 25 -46 142 -88 311 -27 105 -70 179 -156 268
-50 51 -70 82 -89 131 -45 123 -123 295 -192 426 -38 73 -75 158 -84 189 -8
32 -23 81 -34 109 -10 28 -28 105 -39 171 -12 66 -29 163 -38 215 -10 52 -19
157 -22 233 -3 118 -1 137 12 137 9 0 19 -16 27 -42z m-221 -25 c0 -76 -63
-133 -90 -83 -9 18 -5 28 32 70 24 27 46 49 51 50 4 0 7 -17 7 -37z m7101
-164 c22 -42 70 -151 89 -201 12 -32 49 -115 84 -185 74 -152 83 -174 91 -234
3 -27 14 -54 25 -64 20 -18 27 -55 11 -55 -5 0 -15 7 -22 16 -7 9 -49 37 -92
62 -78 45 -107 78 -107 122 0 29 -25 75 -61 112 -23 25 -29 40 -29 77 0 25 -9
95 -20 155 -11 60 -20 128 -20 151 0 57 31 84 51 44z m-701 -64 c0 -8 -4 -15
-10 -15 -5 0 -10 7 -10 15 0 8 5 15 10 15 6 0 10 -7 10 -15z m354 -13 c2 -4
10 -47 17 -94 11 -79 10 -88 -7 -112 -11 -15 -27 -25 -39 -23 -19 2 -20 8 -16
97 2 52 7 105 12 118 9 22 24 29 33 14z m-5361 -378 c24 -32 19 -37 -24 -23
-44 15 -44 16 -29 34 18 21 32 18 53 -11z m6206 -760 c28 -30 51 -60 51 -65 0
-9 -20 -6 -75 8 -34 9 -55 35 -55 68 0 62 15 60 79 -11z m-2866 -163 c12 -48
5 -95 -15 -99 -21 -4 -33 51 -24 104 9 43 27 40 39 -5z m-2869 -43 c12 -17 16
-49 16 -131 0 -100 2 -113 27 -157 27 -48 27 -49 9 -69 -11 -12 -24 -21 -31
-21 -7 0 -21 44 -33 108 -12 59 -30 141 -39 184 -9 42 -13 83 -10 92 9 23 43
20 61 -6z m268 -168 c10 -57 6 -135 -7 -134 -20 2 -35 51 -35 117 0 59 2 68
17 65 12 -2 20 -18 25 -48z m2602 -53 c9 -24 27 -53 41 -65 25 -22 42 -80 31
-108 -3 -9 -15 -18 -26 -21 -18 -5 -20 -14 -21 -102 0 -53 -4 -132 -9 -176
-19 -157 -22 -221 -13 -255 9 -34 12 -35 67 -42 44 -6 65 -4 88 8 46 24 55 11
74 -103 5 -25 -1 -41 -25 -77 -17 -24 -31 -47 -31 -49 0 -9 -99 -149 -174
-248 -93 -122 -129 -161 -395 -443 -91 -97 -141 -122 -215 -111 -28 5 -249 9
-491 10 -477 2 -715 17 -885 55 -100 22 -130 40 -130 74 0 12 -10 32 -23 46
-40 43 -199 293 -302 475 -16 28 -31 52 -35 55 -4 3 -25 32 -48 65 -22 33 -61
89 -86 125 -25 36 -46 73 -46 82 0 9 12 28 26 41 25 23 25 26 15 82 -15 81
-14 115 3 115 8 0 18 -9 21 -20 4 -12 16 -30 28 -40 23 -22 67 -27 67 -7 0 6
-30 57 -66 111 -65 98 -94 152 -94 179 0 8 18 32 40 55 43 44 49 72 29 131 -6
18 -9 34 -6 37 5 5 64 -36 140 -97 37 -30 37 -31 37 -105 l0 -75 -32 3 -33 3
1 -70 c0 -91 24 -143 77 -168 20 -9 37 -22 37 -27 0 -14 60 -50 83 -50 21 0
23 28 2 36 -22 9 -61 79 -84 150 -18 56 -18 68 -6 167 14 115 18 127 43 127 9
0 28 9 42 20 14 11 34 20 46 20 39 0 51 -21 58 -101 7 -100 32 -195 62 -241
34 -53 50 -49 70 19 15 50 15 69 4 159 -7 56 -10 110 -7 118 8 21 31 20 135
-6 82 -20 90 -25 148 -82 57 -57 62 -66 78 -139 21 -94 45 -290 46 -370 0 -60
20 -111 48 -122 21 -8 29 1 36 40 8 40 19 44 43 15 10 -11 26 -20 36 -20 22 0
18 18 -24 102 -23 45 -29 71 -29 120 0 78 16 94 82 78 89 -20 121 -5 111 54
-7 47 37 146 66 146 35 0 51 -12 51 -39 0 -14 11 -44 25 -66 14 -23 25 -56 25
-76 0 -68 66 -118 80 -60 8 35 56 68 78 55 32 -20 43 -62 45 -174 2 -89 5
-113 20 -127 16 -16 17 -15 17 29 0 54 8 63 44 47 53 -25 73 30 36 98 -11 21
-20 56 -20 79 0 23 -7 58 -16 79 -24 57 -12 82 51 111 29 14 82 31 117 38 34
8 81 22 102 31 63 27 67 17 57 -158 -4 -82 -12 -152 -18 -155 -18 -12 -33 -50
-33 -86 0 -30 4 -37 27 -42 20 -6 31 -2 45 16 10 12 18 28 18 36 0 7 6 28 14
46 20 47 36 126 37 178 1 84 6 94 67 134 31 20 68 52 82 71 30 41 57 45 70 9
6 -14 10 -110 10 -213 0 -155 3 -191 15 -201 12 -10 17 -7 26 16 6 16 8 49 4
74 -16 119 -16 141 -1 213 12 58 13 83 4 107 -14 42 4 103 45 150 24 28 40 36
76 40 38 4 47 9 49 28 2 12 -6 37 -17 56 -23 37 -27 86 -9 104 21 21 35 13 52
-31z m270 -377 c30 -46 33 -70 9 -70 -27 1 -82 88 -66 104 14 14 32 4 57 -34z
m-168 -27 c7 -10 14 -31 14 -48 0 -39 -42 -145 -57 -145 -23 0 -15 114 12 198
6 17 15 15 31 -5z m-5641 -55 c2 -13 7 -167 9 -343 5 -372 12 -543 25 -658 22
-182 24 -291 8 -330 -11 -26 -22 -37 -36 -37 -18 0 -21 6 -21 41 0 22 -5 49
-10 60 -17 31 -30 169 -37 394 -3 116 -6 226 -7 245 -1 19 3 161 7 315 7 210
12 286 23 307 18 34 32 36 39 6z m2696 -20 c4 -16 3 -31 -2 -34 -16 -9 -39 16
-39 43 0 34 31 27 41 -9z m-425 -62 c-4 -16 -1 -35 5 -42 8 -10 9 -25 1 -56
-10 -37 -8 -47 9 -75 21 -33 23 -93 4 -100 -14 -4 -36 34 -49 82 -14 55 -11
217 4 246 l13 23 9 -24 c5 -14 7 -38 4 -54z m-90 -183 c-9 -22 -28 -4 -21 19
4 12 0 27 -11 39 -18 20 -18 21 6 39 l25 19 3 -51 c2 -28 1 -57 -2 -65z m-38
-74 c-2 -6 -8 -10 -13 -10 -5 0 -11 4 -13 10 -2 6 4 11 13 11 9 0 15 -5 13
-11z m-1398 -30 c0 -5 -7 -9 -15 -9 -15 0 -20 12 -9 23 8 8 24 -1 24 -14z
m1538 -83 c-4 -25 -36 -28 -51 -5 -6 9 -7 24 -4 33 10 25 59 0 55 -28z m72
-11 c0 -8 -4 -15 -10 -15 -5 0 -10 7 -10 15 0 8 5 15 10 15 6 0 10 -7 10 -15z
m-140 -209 c0 -20 -19 -31 -32 -18 -6 6 -7 15 -4 21 10 16 36 13 36 -3z m-603
-162 c-9 -9 -28 6 -21 18 4 6 10 6 17 -1 6 -6 8 -13 4 -17z m579 -21 c-11 -11
-17 4 -9 23 7 18 8 18 11 1 2 -10 1 -21 -2 -24z m-2282 -40 c-7 -45 -20 -71
-29 -61 -13 12 -7 101 7 109 21 13 29 -5 22 -48z m1361 -23 c3 -6 -1 -13 -10
-16 -19 -8 -30 0 -20 15 8 14 22 14 30 1z m-1345 -119 c0 -44 -8 -71 -21 -71
-5 0 -9 25 -9 55 0 42 3 55 15 55 11 0 15 -11 15 -39z m2295 -21 c0 -11 -14
-16 -53 -18 -38 -2 -52 0 -47 8 18 30 100 38 100 10z m-15 -60 c0 -5 -7 -10
-15 -10 -8 0 -15 5 -15 10 0 6 7 10 15 10 8 0 15 -4 15 -10z m5276 -15 c16 -8
45 -15 65 -15 21 0 42 -7 49 -15 10 -12 24 -14 56 -9 46 7 46 7 58 -46 7 -32
66 -70 109 -70 35 0 83 -32 73 -48 -3 -5 -26 -15 -50 -21 -25 -6 -64 -27 -88
-49 -54 -46 -187 -87 -368 -112 -153 -21 -432 -81 -492 -105 -73 -30 -88 -31
-88 -7 0 22 109 343 121 356 4 5 13 -1 20 -15 6 -13 31 -39 56 -57 36 -26 51
-32 74 -27 19 4 36 1 51 -9 15 -11 45 -16 94 -16 l72 0 36 43 c20 23 41 58 47
77 6 19 22 58 35 87 13 28 24 57 24 62 0 15 13 14 46 -4z m-7539 -140 c-2 -5
-13 -11 -25 -13 -20 -3 -22 1 -22 40 l1 43 24 -30 c14 -16 23 -34 22 -40z
m8253 20 c0 -8 -7 -15 -15 -15 -8 0 -15 7 -15 15 0 8 7 15 15 15 8 0 15 -7 15
-15z m-7540 -15 c0 -5 -7 -10 -15 -10 -8 0 -15 5 -15 10 0 6 7 10 15 10 8 0
15 -4 15 -10z m1550 -36 c6 -14 10 -44 10 -67 0 -23 7 -51 15 -61 17 -22 20
-56 5 -56 -5 0 -21 18 -35 40 -20 32 -25 52 -25 105 0 68 13 85 30 39z m-750
-159 c0 -8 -4 -15 -10 -15 -5 0 -10 7 -10 15 0 8 5 15 10 15 6 0 10 -7 10 -15z
m-462 -32 c-4 -22 -22 -20 -26 1 -2 10 3 16 13 16 10 0 15 -7 13 -17z m898
-18 c8 -21 -6 -41 -17 -24 -12 19 -11 39 1 39 6 0 13 -7 16 -15z m787 -22 c9
-21 23 -56 32 -78 9 -22 57 -122 106 -221 56 -111 89 -190 87 -205 -2 -18 -30
17 -125 159 -122 179 -222 357 -209 370 4 3 16 0 28 -7 17 -11 23 -10 36 3 23
22 26 21 45 -21z m-1563 -8 c0 -8 -4 -15 -10 -15 -5 0 -10 7 -10 15 0 8 5 15
10 15 6 0 10 -7 10 -15z m-20 -100 c0 -8 -4 -15 -10 -15 -5 0 -10 7 -10 15 0
8 5 15 10 15 6 0 10 -7 10 -15z m100 -40 c0 -8 -4 -15 -10 -15 -5 0 -10 7 -10
15 0 8 5 15 10 15 6 0 10 -7 10 -15z m-140 -35 c0 -11 -4 -20 -10 -20 -5 0
-10 2 -10 4 0 2 -3 11 -6 20 -4 11 -1 16 10 16 9 0 16 -8 16 -20z m189 -44
c10 -11 8 -16 -9 -21 -26 -8 -35 -1 -27 20 8 19 21 19 36 1z m421 -106 c0 -11
-4 -20 -9 -20 -14 0 -23 18 -16 30 10 17 25 11 25 -10z m910 -66 c0 -16 -16
-19 -25 -4 -8 13 4 32 16 25 5 -4 9 -13 9 -21z m-630 -46 c0 -7 3 -23 6 -35 5
-17 2 -23 -10 -23 -12 0 -16 9 -16 35 0 19 5 35 10 35 6 0 10 -6 10 -12z
m1005 -188 c-3 -5 -13 -10 -21 -10 -8 0 -12 5 -9 10 3 6 13 10 21 10 8 0 12
-4 9 -10z m865 -186 c0 -8 -4 -14 -10 -14 -5 0 -10 9 -10 21 0 11 5 17 10 14
6 -3 10 -13 10 -21z"/>
<path d="M5800 7384 c-8 -1 -47 -8 -86 -14 l-72 -11 -4 -35 c-3 -30 0 -39 24
-55 15 -11 28 -27 28 -36 0 -9 -13 -54 -29 -102 -17 -47 -33 -115 -37 -151 -3
-36 -11 -71 -16 -77 -19 -24 -29 -2 -22 48 4 27 1 100 -6 161 l-13 111 26 23
c22 19 24 24 12 34 -8 7 -15 28 -15 46 0 22 -5 34 -14 34 -17 0 -136 -45 -185
-70 -21 -10 -74 -28 -118 -39 -163 -42 -456 -193 -550 -284 -24 -23 -58 -73
-79 -116 -20 -42 -42 -83 -49 -91 -21 -25 -27 -78 -16 -128 49 -207 61 -275
55 -313 -6 -35 -4 -45 12 -56 18 -13 18 -15 2 -24 -13 -7 -15 -18 -11 -47 14
-101 44 -138 142 -177 82 -32 274 -144 326 -189 51 -45 88 -47 135 -7 34 28
35 30 22 62 -15 41 -7 49 75 75 47 15 63 15 123 5 88 -16 124 -8 182 40 54 46
77 48 114 14 15 -14 32 -25 39 -25 24 0 223 86 336 145 39 21 81 35 101 35 55
0 71 25 79 133 4 51 21 157 38 237 60 277 57 245 28 362 -15 57 -27 124 -27
148 0 82 -75 181 -172 231 -73 37 -169 70 -266 90 -52 10 -95 18 -96 18 0 -1
-8 -3 -16 -5z m-344 -236 c-43 -337 -49 -363 -84 -356 -13 3 -15 32 -15 185
-1 163 1 184 18 203 11 13 31 20 53 20 l35 0 -7 -52z m424 -1 c0 -24 -28 -77
-40 -77 -11 0 -14 103 -4 113 11 10 44 -17 44 -36z m-692 -26 c11 -6 11 -23 3
-85 -6 -43 -11 -138 -11 -211 0 -123 -2 -135 -19 -145 -11 -5 -22 -10 -26 -10
-3 0 -5 53 -4 118 1 74 -5 146 -15 197 -21 104 -21 102 17 125 36 23 37 23 55
11z m-198 -266 c0 -94 -5 -237 -11 -320 -5 -82 -13 -217 -18 -298 -5 -82 -12
-151 -15 -155 -24 -23 -52 105 -37 168 5 19 9 123 10 230 2 258 19 498 38 528
29 47 35 20 33 -153z m-124 -27 c-4 -73 -6 -180 -5 -238 3 -201 4 -236 1 -347
-2 -103 -4 -113 -21 -113 -10 0 -23 6 -28 13 -15 19 -33 101 -23 107 4 3 4 27
-1 55 -6 28 -7 68 -4 90 6 36 13 133 31 435 4 64 11 101 22 113 31 35 35 19
28 -115z m-99 -288 c11 -37 0 -86 -16 -76 -14 9 -61 171 -61 212 0 41 27 124
44 136 8 5 13 -33 17 -115 4 -67 11 -138 16 -157z m400 -289 c15 -23 8 -31
-28 -31 -29 0 -44 21 -26 39 17 17 41 13 54 -8z"/>
<path d="M7625 7370 c-16 -5 -55 -17 -85 -29 -30 -11 -85 -29 -122 -40 -107
-33 -135 -54 -151 -114 -8 -29 -27 -95 -42 -147 -50 -172 -55 -194 -55 -237 0
-32 -4 -43 -15 -43 -16 0 -29 24 -40 75 -13 60 -128 146 -157 117 -15 -15 -1
-112 22 -150 16 -26 26 -32 53 -32 54 0 71 -19 63 -71 -4 -24 -10 -96 -12
-160 -5 -110 -4 -119 20 -165 13 -27 28 -66 32 -87 9 -53 43 -99 89 -121 46
-21 284 -100 335 -111 21 -4 53 -24 80 -50 55 -53 189 -115 250 -115 22 0 54
7 71 15 43 23 84 21 181 -10 115 -36 196 -33 283 11 l60 30 24 80 c13 43 63
156 111 249 86 169 166 381 156 413 -3 9 -10 62 -16 117 -15 143 -65 289 -117
344 -43 44 -125 67 -293 81 -71 6 -145 20 -230 45 -181 54 -371 103 -421 109
-24 2 -57 1 -74 -4z m99 -166 c9 -4 16 -18 16 -33 0 -37 -46 -170 -67 -193
-16 -18 -63 -25 -63 -9 0 10 76 217 85 231 7 12 8 12 29 4z m137 -34 c27 -15
25 -72 -3 -104 -25 -28 -78 -46 -78 -27 0 29 24 108 38 124 18 20 18 20 43 7z
m-287 -22 c-3 -13 -9 -48 -15 -78 -29 -161 -38 -182 -96 -206 -64 -27 -68 -13
-23 76 17 33 37 92 45 132 18 84 28 98 66 98 24 0 27 -3 23 -22z m-158 -51 c4
-3 -24 -168 -41 -244 -3 -14 -13 -23 -25 -23 -17 0 -19 5 -14 53 3 28 7 60 9
69 1 9 -1 45 -5 80 -4 35 -5 67 -2 72 4 8 69 2 78 -7z m804 -52 c20 -24 -61
-214 -91 -215 -20 0 -16 54 10 121 15 41 31 82 34 92 8 21 30 22 47 2z m160
-24 c0 -9 -4 -21 -9 -26 -4 -6 -25 -54 -46 -108 -39 -102 -55 -121 -82 -94
-14 14 -12 24 16 102 42 117 57 143 83 147 30 5 38 1 38 -21z m129 20 c25 -16
15 -77 -26 -148 -65 -113 -102 -93 -63 35 35 114 52 136 89 113z m-459 -126
c0 -23 -6 -37 -17 -43 -24 -13 -98 9 -98 28 0 18 60 50 93 50 19 0 22 -5 22
-35z m505 -215 c-8 -80 -17 -156 -21 -170 -23 -93 -90 -282 -111 -314 -21 -33
-26 -51 -25 -105 0 -36 4 -78 7 -93 7 -25 5 -28 -19 -28 -30 0 -90 23 -99 37
-12 19 14 85 35 91 15 3 18 10 14 28 -5 17 14 64 65 168 96 196 126 321 100
412 -15 51 34 153 61 126 4 -4 1 -72 -7 -152z m-1290 -19 c3 -5 1 -13 -5 -16
-15 -9 -43 3 -35 15 8 13 32 13 40 1z m1280 -399 c0 -18 -20 -15 -23 4 -3 10
1 15 10 12 7 -3 13 -10 13 -16z m-865 -157 c0 -8 -7 -15 -15 -15 -16 0 -20 12
-8 23 11 12 23 8 23 -8z"/>
<path d="M6670 7029 c-14 -6 -40 -17 -57 -25 -24 -10 -33 -20 -33 -37 0 -49
50 -62 100 -25 24 17 43 21 102 21 40 0 84 -2 98 -4 35 -6 33 28 -3 55 -22 16
-45 21 -105 23 -42 2 -88 -2 -102 -8z"/>
<path d="M6658 6489 c-47 -24 -100 -76 -121 -121 -9 -19 -26 -75 -38 -124 -50
-212 -133 -416 -225 -554 -85 -129 -92 -203 -37 -409 21 -78 66 -121 127 -121
39 0 52 -6 85 -35 46 -42 102 -51 126 -19 39 49 64 105 80 177 9 43 23 81 30
83 7 3 44 -4 82 -15 87 -26 101 -49 115 -185 9 -93 8 -102 -11 -137 -24 -41
-29 -109 -8 -109 20 0 37 22 37 47 0 13 5 23 10 23 6 0 10 6 10 13 0 28 40 57
79 57 41 0 51 11 51 55 0 16 11 29 35 43 35 21 74 87 115 194 25 67 25 78 -5
192 -14 52 -25 108 -25 125 0 55 -66 169 -154 265 -58 62 -76 117 -76 225 0
84 -15 249 -26 284 -15 50 -186 80 -256 46z"/>
<path d="M4380 6280 c0 -5 7 -10 15 -10 8 0 15 5 15 10 0 6 -7 10 -15 10 -8 0
-15 -4 -15 -10z"/>
<path d="M4489 6269 c15 -6 34 -6 50 0 22 8 19 9 -24 10 -42 0 -46 -2 -26 -10z"/>
<path d="M7577 5566 c-8 -8 -17 -34 -21 -57 -6 -35 -3 -48 14 -69 11 -14 30
-45 41 -68 28 -59 111 -139 160 -153 47 -15 102 -2 107 25 2 10 -10 41 -27 68
-18 28 -30 52 -28 54 5 5 206 25 319 31 89 5 98 4 104 -13 26 -81 52 -104 117
-104 55 0 67 23 67 123 0 80 -2 87 -26 106 -14 11 -61 32 -106 47 -77 25 -84
26 -167 15 -109 -14 -495 -15 -521 -1 -14 7 -23 6 -33 -4z"/>
<path d="M5485 5551 c-16 -4 -59 -20 -94 -35 -79 -32 -157 -45 -276 -47 -122
-2 -149 -8 -153 -38 -4 -26 30 -68 65 -82 12 -4 107 -4 212 1 174 8 196 7 260
-11 87 -24 98 -24 143 -1 49 25 82 53 97 80 17 31 -12 90 -57 116 -37 21 -147
31 -197 17z"/>
<path d="M5625 4180 c-3 -5 0 -21 6 -37 6 -15 17 -84 25 -153 8 -69 16 -135
19 -147 6 -27 30 -30 40 -5 9 21 27 168 29 237 1 28 7 60 14 72 7 12 12 25 12
30 0 11 -138 14 -145 3z"/>
<path d="M7817 3564 c-4 -4 -7 -57 -7 -117 0 -108 -30 -309 -52 -351 -12 -22
-53 -59 -138 -122 -36 -27 -91 -74 -122 -104 -57 -55 -58 -57 -58 -110 0 -63
24 -120 56 -131 17 -6 39 3 90 34 54 33 83 61 130 124 33 45 78 101 99 125 56
65 60 82 30 139 -29 57 -30 71 -9 130 24 68 37 262 21 328 -11 52 -25 70 -40
55z"/>
<path d="M6006 3262 c5 -44 3 -50 -25 -81 -17 -18 -31 -34 -31 -36 0 -2 24
-28 54 -59 38 -40 61 -56 80 -56 33 0 33 13 1 82 -14 29 -25 68 -25 85 0 44
-29 113 -46 113 -12 0 -13 -10 -8 -48z"/>
<path d="M5804 3205 c-25 -60 -15 -85 32 -85 15 0 18 36 8 89 -8 40 -22 39
-40 -4z"/>
<path d="M6716 3149 c-2 -8 -18 -57 -35 -109 -35 -107 -37 -128 -16 -136 16
-7 80 29 88 49 3 7 0 54 -5 103 -11 87 -23 122 -32 93z"/>
<path d="M1546 2202 c-7 -12 22 -38 31 -28 4 3 0 14 -9 22 -9 10 -18 12 -22 6z"/>
</g>
</svg>
